<?xml version="1.0" encoding="UTF-8" standalone="no"?><!DOCTYPE svg PUBLIC "-//W3C//DTD SVG 1.1//EN" "http://www.w3.org/Graphics/SVG/1.1/DTD/svg11.dtd"><svg width="100%" height="100%" viewBox="0 0 50 50" version="1.1" xmlns="http://www.w3.org/2000/svg" xmlns:xlink="http://www.w3.org/1999/xlink" xml:space="preserve" xmlns:serif="http://www.serif.com/" style="fill-rule:evenodd;clip-rule:evenodd;stroke-linecap:round;stroke-linejoin:round;stroke-miterlimit:1.5;"><g id="Plan-de-travail1" serif:id="Plan de travail1"></g><path d="M25.966,17.319c0.216,0 -0.157,-0.402 -0.223,-0.608c-0.169,-0.527 -0.504,-0.982 -0.976,-1.278c-1.053,-0.659 -2.95,-0.959 -4.177,-0.722c-3.358,0.648 -4.995,5.47 -4.41,8.436c0.231,1.175 0.658,2.243 1.345,3.221c0.347,0.494 0.734,1.01 1.2,1.397c1.508,1.254 3.539,0.808 4.815,-0.519c1.891,-1.966 2.593,-4.445 2.593,-7.112c0,-0.963 0.281,-2.124 0.052,-3.075c-0.021,-0.087 0.003,-0.681 -0.037,-0.701c-0.052,-0.028 -0.15,1.623 -0.15,1.704c0,1.044 0.056,2.096 0.135,3.137c0.164,2.165 0.603,3.912 1.148,5.995c0.355,1.36 0.737,2.811 2.093,3.507c3.001,1.538 5.58,0.016 7.377,-2.561c1.95,-2.798 2.634,-5.314 2.94,-8.665c0.135,-1.479 0.411,-3.12 0.109,-4.593c-0.474,-2.311 -1.897,-3.621 -3.449,-5.246c-1.408,-1.475 -2.767,-2.798 -4.712,-3.543c-1.805,-0.691 -3.752,-0.695 -5.652,-0.862c-1.85,-0.163 -3.725,-0.448 -5.542,0.072c-5.196,1.489 -9.446,5.895 -11.32,10.847c-1.81,4.784 -1.737,11.766 1.034,16.208c0.84,1.346 2.081,2.271 3.309,3.236c2.524,1.984 5.442,4.407 8.608,5.262c5.134,1.388 10.618,-0.547 15.028,-3.075c1.371,-0.786 2.259,-1.711 3.211,-2.945c0.091,-0.119 0.747,-0.802 0.623,-0.946" style="fill:none;stroke:#000;stroke-width:6px;"/></svg>