<?xml version="1.0" encoding="UTF-8" standalone="no"?><!DOCTYPE svg PUBLIC "-//W3C//DTD SVG 1.1//EN" "http://www.w3.org/Graphics/SVG/1.1/DTD/svg11.dtd"><svg width="100%" height="100%" viewBox="0 0 50 50" version="1.1" xmlns="http://www.w3.org/2000/svg" xmlns:xlink="http://www.w3.org/1999/xlink" xml:space="preserve" xmlns:serif="http://www.serif.com/" style="fill-rule:evenodd;clip-rule:evenodd;stroke-linejoin:round;stroke-miterlimit:2;"><rect id="Plan-de-travail1" serif:id="Plan de travail1" x="0" y="0" width="50" height="50" style="fill:none;"/><clipPath id="_clip1"><rect id="Plan-de-travail11" serif:id="Plan de travail1" x="0" y="0" width="50" height="50"/></clipPath><g clip-path="url(#_clip1)"><rect x="0" y="0" width="50" height="50" style="fill:#0e0989;"/><path d="M51.035,52.311l5.077,-6.084l-64.279,-53.636l-5.076,6.084l64.278,53.636Z" style="fill:#fefffe;"/><path d="M52.955,2.643l-5.173,-5.167l-50.737,50.787l5.173,5.168l50.737,-50.788Z" style="fill:#fefffe;"/><path d="M52.041,0.938l-2.674,-2.671l-50.737,50.788l2.673,2.671l50.738,-50.788Z" style="fill:#eb0d05;"/><path d="M51.928,51.282l2.692,-3.226l-64.279,-53.635l-2.692,3.226l64.279,53.635Z" style="fill:#eb0d05;"/><path d="M50,28.617l0,-8.075l-50,0l0,8.075l50,0Z" style="fill:#fefffe;"/><rect x="18.467" y="-0.851" width="13.066" height="50.851" style="fill:#fefffe;"/><rect x="21.954" y="0" width="6.092" height="50" style="fill:#eb0d05;"/><path d="M50,26.91l0,-3.82l-50,0l0,3.82l50,0Z" style="fill:#eb0d05;"/></g></svg>