<?xml version="1.0" encoding="UTF-8" standalone="no"?><!DOCTYPE svg PUBLIC "-//W3C//DTD SVG 1.1//EN" "http://www.w3.org/Graphics/SVG/1.1/DTD/svg11.dtd"><svg width="100%" height="100%" viewBox="0 0 50 50" version="1.1" xmlns="http://www.w3.org/2000/svg" xmlns:xlink="http://www.w3.org/1999/xlink" xml:space="preserve" xmlns:serif="http://www.serif.com/" style="fill-rule:evenodd;clip-rule:evenodd;stroke-linecap:round;stroke-linejoin:round;stroke-miterlimit:1.5;"><path d="M47.218,37.735c-0.397,0.398 -1.006,-0.548 -1.214,-0.798c-1.069,-1.279 -2.201,-2.536 -3.429,-3.666c-2.263,-2.081 -4.424,-4.463 -6.908,-6.275c-1.444,-1.053 -3.05,-1.948 -4.662,-2.717c-4.063,-1.938 -8.625,-2.448 -13.063,-1.854c-3.505,0.468 -6.708,1.59 -9.375,3.969c-1.618,1.443 -3.706,3.49 -4.096,5.74" style="fill:none;stroke:#000;stroke-width:5px;"/><path d="M10.227,12.246c0,-0.264 -0.479,0.23 -0.498,0.253c-0.423,0.513 -0.8,1.058 -1.11,1.648c-0.795,1.515 -1.425,3.089 -2.108,4.655c-1.616,3.711 -2.911,7.407 -3.459,11.437c-0.194,1.428 -0.597,3.262 0.229,4.575c1.319,2.098 4.815,1.458 6.85,1.153c1.792,-0.268 3.575,-0.581 5.382,-0.745c2.222,-0.202 4.456,-0.191 6.683,-0.328c1.107,-0.067 2.209,-0.173 3.32,-0.173c0.629,0 1.377,-0.031 1.953,0.288" style="fill:none;stroke:#000;stroke-width:5px;"/></svg>