<?xml version="1.0" encoding="UTF-8" standalone="no"?><!DOCTYPE svg PUBLIC "-//W3C//DTD SVG 1.1//EN" "http://www.w3.org/Graphics/SVG/1.1/DTD/svg11.dtd"><svg width="100%" height="100%" viewBox="0 0 100 100" version="1.1" xmlns="http://www.w3.org/2000/svg" xmlns:xlink="http://www.w3.org/1999/xlink" xml:space="preserve" xmlns:serif="http://www.serif.com/" style="fill-rule:evenodd;clip-rule:evenodd;stroke-linecap:round;stroke-linejoin:round;stroke-miterlimit:1.5;"><rect id="Plan-de-travail1" serif:id="Plan de travail1" x="0" y="0" width="100" height="100" style="fill:none;"/><clipPath id="_clip1"><rect id="Plan-de-travail11" serif:id="Plan de travail1" x="0" y="0" width="100" height="100"/></clipPath><g clip-path="url(#_clip1)"><circle cx="50" cy="50" r="50" style="fill:#00b97f;"/><path d="M31.248,40.108l0.367,1.21l-0.367,1.329l0,-2.539Z" style="fill:#d7d7d7;"/><path d="M26.578,39.035l-0.695,0.892l0,-1.151l0.695,0.259Z" style="fill:#fefffe;"/><clipPath id="_clip2"><path d="M26.578,39.035l-0.695,0.892l0,-1.151l0.695,0.259Z"/></clipPath><g clip-path="url(#_clip2)"><path d="M29.474,42.656l1.076,-1.174l0.698,1.174l-1.774,0Z" style="fill:#fefffe;"/></g><path d="M25.883,38.776l-0.385,1.151l0.385,0l0,-1.151Z" style="fill:#fefffe;"/><path d="M25.498,39.927l0.102,2.256l0.237,-2.276l-0.339,0.02Z" style="fill:#dedede;"/><path d="M25.847,40.996l-0.247,1.187l0.237,-2.326l0.01,1.139Z" style="fill:#fefffe;"/><path d="M25.6,42.183l1.493,0.464l-1.038,-0.706l-0.455,0.242Z" style="fill:#e3e3e4;"/><path d="M26.094,42.003l-0.257,-0.983l-0.237,1.163l0.494,-0.18Z" style="fill:#eeefef;"/><path d="M30.55,41.482l0.698,1.165l0,-2.539l-0.698,1.374Z" style="fill:#f5f6f6;"/><path d="M30.55,41.482l0,-1.555l0.698,0.178l-0.698,1.377Z" style="fill:#fefffe;"/><path d="M59.773,40.33l-0.558,1.062l1.761,0.804l-1.203,-1.866Z" style="fill:#e4e4e4;"/><path d="M62.828,25.516l1.445,-0.528l7.515,2.349l-8.96,-1.821Z" style="fill:#101010;"/><path d="M63.334,26.994l2.989,0l-2.122,2.382l-0.867,-2.382Z" style="fill:#1e1f1f;"/><path d="M71.788,27.337l-8.474,-0.343l-0.486,-1.478l8.96,1.821Z" style="fill:#343434;"/><path d="M64.273,29.29l7.515,-1.953l-5.465,-0.343l-2.05,2.296Z" style="fill:#2c2c2c;"/><path d="M65.568,48.957l2.408,5.156l-0.559,-9.197l-1.849,4.041Z" style="fill:#9d7067;"/><path d="M48.244,35.824l1.03,1.895l2.503,-1.174l-3.533,-0.721Z" style="fill:#1a1a1a;"/><path d="M37.195,41.271l0.939,0l1.382,0.633l-2.321,-0.633Z" style="fill:#a1736a;"/><path d="M49.536,38.136l12.359,0.958l-10.037,-2.12l-2.322,1.162Z" style="fill:#2f2f2f;stroke:#333;stroke-width:1px;"/><path d="M38.265,35.218l-1.49,-3.094l5.986,-3.135l-4.496,6.229Z" style="fill:#b88980;"/><path d="M48.604,7.132l3.273,13.368l-5.892,0l2.619,-13.368Z" style="fill:#8f635a;"/><path d="M38.578,17.204l5.337,-3.388l2.144,7.009l-7.481,-3.621Z" style="fill:#af8177;"/><path d="M24.96,17.204l13.618,0l5.443,-3.388l-19.061,3.388Z" style="fill:#8f635a;"/><path d="M29.646,23.284l8.932,-6.08l-13.618,-0.046l4.686,6.126Z" style="fill:#8f635a;"/><path d="M48.604,7.132l9.066,2.455l-5.78,10.913l-3.286,-13.368Z" style="fill:#8f635a;"/><path d="M24.96,17.204l23.644,-10.072l-4.757,6.815l-18.887,3.257Z" style="fill:#8f635a;"/><path d="M20.953,29.365l8.753,-6.124l-4.746,-6.037l-4.007,12.161Z" style="fill:#8f635a;"/><path d="M29.767,23.063l2.002,4.132l-5.367,-1.633l3.365,-2.499Z" style="fill:#8f635a;"/><path d="M28.341,28.736l-1.939,-3.174l5.367,1.633l-3.428,1.541Z" style="fill:#8f635a;"/><path d="M31.769,27.195l5.006,-1.413l0,6.342l-5.006,-4.929Z" style="fill:#8f635a;"/><path d="M31.769,32.124l5.006,0l-5.006,-4.929l0,4.929Z" style="fill:#a2756b;"/><path d="M36.775,25.782l-3.544,-4.957l-3.591,2.368l2.129,4.002l5.006,-1.413Z" style="fill:#a2756b;"/><path d="M42.876,28.989l-6.101,3.135l0,-6.271l6.101,3.136Z" style="fill:#b88980;"/><path d="M36.775,25.853l2.993,-1.829l-1.19,-6.866l-5.37,3.667l3.567,5.028Z" style="fill:#a2756b;"/><path d="M39.768,24.024l6.217,-3.433l-7.407,-3.433l1.19,6.866Z" style="fill:#a2756b;"/><path d="M42.761,28.989l-5.986,-3.136l2.993,-1.829l2.993,4.965Z" style="fill:#b88980;"/><path d="M45.985,20.591l-3.224,8.398l-2.993,-4.965l6.217,-3.433Z" style="fill:#b88980;"/><path d="M51.877,20.5l1.992,7.157l-8.176,-7.157l6.184,0Z" style="fill:#9e7168;"/><path d="M45.985,33.822l-3.224,-4.833l3.224,-8.398l7.884,7.066l-7.884,6.165Z" style="fill:#b88980;"/><path d="M61.655,24.078l-7.786,3.579l-7.884,6.165l15.67,-9.744Z" style="fill:#8f635a;"/><path d="M64.178,12.241l-6.508,-2.645l-5.793,10.904l12.301,-8.259Z" style="fill:#855a51;"/><path d="M66.814,20.5l-14.937,0l12.301,-8.259l2.636,8.259Z" style="fill:#8f635a;"/><path d="M68.951,15.074l-4.773,-2.833l2.636,8.259l2.137,-5.426Z" style="fill:#9b6f65;"/><path d="M51.877,20.5l9.778,3.578l-7.835,3.626" style="fill:#a4766d;"/><path d="M61.655,24.078l5.159,-3.578l-14.937,0l9.778,3.578Z" style="fill:#a3766d;"/><path d="M61.655,24.078l10.048,3.331l-4.889,-6.909l-5.159,3.578Z" style="fill:#8f635a;"/><path d="M24.15,29.391l2.287,0l3.843,3.675l-6.13,-3.675Z" style="fill:#5c352d;"/><path d="M68.952,15.073l2.751,12.336l-4.889,-6.909l2.138,-5.427Z" style="fill:#a3766d;"/><path d="M72.142,27.826l-2.651,4.207l5.795,-0.173l-3.144,-4.034Z" style="fill:#5d362e;"/><path d="M75.286,31.86l0.888,-5.782l-4.471,1.331l3.583,4.451Z" style="fill:#8f635a;"/><path d="M68.951,15.074l5.689,7.872l-2.937,4.463l-2.752,-12.335Z" style="fill:#966a60;"/><path d="M74.649,22.946l1.525,3.132l-4.471,1.331l2.946,-4.463Z" style="fill:#8b6057;"/><path d="M38.185,34.975l7.919,-1.307l-3.343,-4.679l-4.576,5.986Z" style="fill:#8f635a;"/><path d="M31.733,32.124l5.042,0l-2.5,3.094l-2.542,-3.094Z" style="fill:#754b43;"/><path d="M31.733,32.103l0.505,2.298l3.251,3.426l-1.069,-2.609l-2.687,-3.115Z" style="fill:#754b43;"/><path d="M36.775,32.124l1.477,3.094l-3.998,0l2.521,-3.094Z" style="fill:#603831;"/><path d="M35.489,37.827l4.279,4.028l0.431,-7.261l-4.71,3.233Z" style="fill:#a4766d;"/><path d="M38.185,34.975l2.014,-0.381l-4.71,3.233l2.696,-2.852Z" style="fill:#8f635a;"/><path d="M35.489,37.827l-1.069,-2.609l3.995,-0.243l-2.926,2.852Z" style="fill:#8f635a;"/><path d="M40.199,34.594l2.06,1.807l3.845,-2.871l-5.905,1.064Z" style="fill:#8f635a;"/><path d="M39.768,41.855l8.581,6.783l-5.413,-12.237l-2.737,-1.807l-0.431,7.261Z" style="fill:#91655c;"/><path d="M51.891,52.575l4.217,-3.605l7.183,0.789l-11.4,2.816Z" style="fill:#2a0500;"/><path d="M26.422,47.905l-2.881,1.854l8.626,0l-5.745,-1.854Z" style="fill:#270000;"/><g id="Sourcil-gauche" serif:id="Sourcil gauche"><path d="M21.072,29.465l5.33,0" style="fill:none;"/><path d="M17.09,33.521l6.772,-4.22l-5.025,1.714l-1.747,2.506Z" style="fill:#202121;"/><path d="M23.862,29.301l-3.222,3.415l0.62,-1.802l2.602,-1.613Z" style="fill:#191919;"/><path d="M17.878,29.931l5.984,-0.63l-5.014,1.714l-0.97,-1.084Z" style="fill:#353535;"/><path d="M23.862,29.301l5.324,4.22l-4.719,-1.783l-0.605,-2.437Z" style="fill:#363636;"/><path d="M20.6,32.762l3.972,-1.024l-0.71,-2.437l-3.262,3.461Z" style="fill:#010001;"/><path d="M29.186,33.521l3.287,1.35l-2.27,-1.609l-1.017,0.259Z" style="fill:#010001;"/><path d="M23.862,29.301l6.341,3.961l-1.017,0.259l-5.324,-4.22Z" style="fill:#010001;"/><path d="M17.914,29.954l-0.824,3.567l1.747,-2.506l-0.923,-1.061Z" style="fill:#010001;"/><path d="M19.784,31.738l1.476,-0.824l-0.62,1.802l-0.856,-0.978Z" style="fill:#060506;"/><path d="M17.09,33.521l3.55,-0.805l-0.856,-0.978l-2.694,1.783Z" style="fill:#1a1a1a;"/></g><path d="M24.955,26.383l-4.002,2.982l5.449,0.1l-1.447,-3.082Z" style="fill:#774d44;"/><path d="M24.955,26.434l1.447,-0.872l0,3.903l-1.447,-3.031Z" style="fill:#774d44;"/><path d="M26.402,29.465l3.193,1.398l-3.193,-5.301l0,3.903Z" style="fill:#774d44;"/><path d="M29.595,30.863l0.685,2.203l-1.504,-1.397l-2.374,-2.204l3.193,1.398Z" style="fill:#774d44;"/><path d="M30.28,33.066l1.489,-0.939l0,-4.932l-3.428,1.541l1.254,2.127l0.685,2.203Z" style="fill:#8f635a;"/><path d="M30.28,33.066l1.497,-0.942l0.461,2.277l-1.958,-1.335Z" style="fill:#754b43;"/><path d="M43.284,35.813l18.534,-11.717l0.975,1.355l-19.509,10.362Z" style="fill:#010001;stroke:#010001;stroke-width:1px;"/><path d="M71.788,27.691l-3.239,5.365l0,-1.539l3.239,-4.18" style="fill:#303030;"/><path d="M68.477,31.683l-4.276,-2.382l7.587,-1.964l-3.311,4.346Z" style="fill:#010001;"/><path d="M64.201,29.301l-5.433,-1.74l-2.66,4.122l8.093,-2.382Z" style="fill:#3f3f3f;"/><path d="M43.284,35.813l12.824,-4.13l2.695,-4.122l-15.519,8.252Z" style="fill:#212121;"/><path d="M50.01,43.902l3.028,-0.903l7.808,0l-10.836,0.903Z" style="fill:#010001;stroke:#010001;stroke-width:1px;"/><path d="M55.468,38.612l-0.958,0.79l0,1.361l0.958,-2.151Z" style="fill:#7d7d7d;"/><path d="M54.51,40.763l1.598,0l-0.68,1.666l-0.918,-1.666Z" style="fill:#5d5d5d;"/><path d="M55.468,38.612l-0.958,2.151l2.418,0l-1.46,-2.151Z" style="fill:#474747;"/><path d="M55.428,42.429l1.215,0.57l-0.535,-2.236l2.584,0l-2.268,1.322l-0.316,-1.322" style="fill:#010001;"/><path d="M57.455,41.493l0.882,1.506l-1.712,0l-0.201,-0.912l1.031,-0.594Z" style="fill:#7d7d7d;"/><path d="M58.337,42.999l0.355,-2.236l-1.299,0.73l0.944,1.506Z" style="fill:#474747;"/><path d="M55.428,38.628l1.751,0.121l-0.281,2.014l-1.47,-2.135Z" style="fill:#5d5d5d;"/><path d="M57.179,38.771l0.931,1.992l-1.228,0l0.297,-1.992Z" style="fill:#010001;"/><path d="M57.179,38.771l2.594,0.183l-1.663,1.809l-0.931,-1.992Z" style="fill:#272727;"/><path d="M58.692,40.763l1.7,-0.836l-0.652,-0.954l-1.63,1.79l0.582,0Z" style="fill:#474747;"/><path d="M60.104,40.04l-1.783,2.959l0.371,-2.236l1.412,-0.723Z" style="fill:#272727;"/><path d="M59.234,41.392l1.729,0.772l-0.606,0.835l-1.123,-1.607Z" style="fill:#010001;"/><path d="M58.321,42.999l2.036,0l-1.123,-1.607l-0.913,1.607Z" style="fill:#474747;"/><path d="M59.773,40.33l1.565,0.804l-0.375,1.062l-1.19,-1.866Z" style="fill:#272727;"/><path d="M60.357,39.896l1.372,-0.868l-1.956,0l0.584,0.868Z" style="fill:#5d5d5d;"/><path d="M61.338,41.138l0.391,-0.919l-1.372,-0.323l-0.468,0.482l1.449,0.76Z" style="fill:#5d5d5d;"/><path d="M61.729,40.213l-0.096,-1.24l-1.276,0.923l1.372,0.317Z" style="fill:#272727;"/><path d="M20.48,35.299l2.048,1.623l-1.011,0.77l-1.037,-2.393Z" style="fill:#010001;"/><path d="M22.528,36.922l9.57,2.784l-6.192,-0.964l-3.378,-1.82Z" style="fill:#010001;"/><path d="M21.504,37.692l1.024,-0.77l3.376,1.82l-0.741,0.047l-3.659,-1.097Z" style="fill:#292929;"/><path d="M25.904,38.742l5.889,0.918l0.305,0.046l-0.922,0.425l-5.272,-1.389Z" style="fill:#010001;"/><path d="M31.176,40.131l0.922,-0.425l-0.284,0.776l-0.638,-0.351Z" style="fill:#282828;"/><path d="M31.81,40.482l2.71,-0.418l-1.384,0.885l-1.326,-0.467Z" style="fill:#7b534b;"/><path d="M26.57,39.054l-0.733,0.853l1.29,0l-0.557,-0.853Z" style="fill:#3c3c3c;"/><path d="M25.837,39.907l0,1.087l0.806,0.494l-0.806,-1.581Z" style="fill:#040404;"/><path d="M26.085,41.946l1.042,0.701l-0.484,-1.159l-0.558,0.458Z" style="fill:#131313;"/><path d="M27.127,42.647l1.023,-1.612l-1.507,0.453l0.484,1.159Z" style="fill:#2d2d2d;"/><path d="M25.837,39.907l2.313,1.128l-1.507,0.453l-0.806,-1.581Z" style="fill:#515151;"/><path d="M28.15,41.035l1.247,1.612l-2.27,0l1.023,-1.612Z" style="fill:#010001;"/><path d="M28.743,41.841l1.793,-0.353l-1.139,1.159l-0.654,-0.806Z" style="fill:#383838;"/><path d="M30.536,41.488l0,-1.581l-1.139,0.791l1.139,0.79Z" style="fill:#6f6f6f;"/><path d="M29.397,40.698l-0.654,1.143l1.793,-0.353l-1.139,-0.79Z" style="fill:#1d1d1d;"/><path d="M28.15,41.035l0.593,-1.535l0.654,1.198l-0.654,1.143l-0.593,-0.806Z" style="fill:#1e1e1e;"/><path d="M27.127,39.907l1.023,1.128l-2.313,-1.128l1.29,0Z" style="fill:#242424;"/><path d="M27.127,39.907l1.616,-0.407l-0.593,1.535l-1.023,-1.128Z" style="fill:#010001;"/><path d="M26.607,39.087l2.136,0.413l-1.616,0.407l-0.52,-0.82Z" style="fill:#868686;"/><path d="M64.228,29.469l0,7.341l-4.709,-6.038l4.709,-1.303Z" style="fill:#59322b;"/><path d="M59.519,30.772l-1.759,3.05l-2.482,-1.698l4.241,-1.352Z" style="fill:#573029;"/><path d="M57.76,33.822l6.468,2.988l-4.709,-6.038l-1.759,3.05Z" style="fill:#633b33;"/><path d="M55.278,32.124l0,4.686l2.482,-2.988l-2.482,-1.698Z" style="fill:#b4857b;"/><path d="M51.908,36.81l3.37,0l0,-4.686l-3.37,4.686Z" style="fill:#8f635a;"/><path d="M51.908,36.81l-1.353,-3.019l4.723,-1.667l-3.37,4.686Z" style="fill:#7a5047;"/><path d="M51.777,36.545l-3.533,-0.721l2.311,-2.002l1.222,2.723Z" style="fill:#8f635a;"/><path d="M48.354,35.86l-1.308,-1.014l3.509,-1.024l-2.201,2.038Z" style="fill:#573029;"/><path d="M47.052,34.841l-1.941,7.019l-1.94,-5.05l3.881,-1.969Z" style="fill:#633b33;"/><path d="M45.111,41.86l3.243,6.884l-0.08,-12.918l-3.163,6.034Z" style="fill:#7a5047;"/><path d="M48.354,48.744l1.278,-10.394l-1.358,-2.524l0.08,12.918Z" style="fill:#8f635a;"/><path d="M48.326,48.685l3.931,-1.85l-3.582,-1.34l-0.349,3.19Z" style="fill:#8f635a;"/><path d="M49.632,38.35l2.533,1.706l3.263,-1.428l-5.796,-0.278Z" style="fill:#9a6d64;"/><path d="M52.165,40.056l0.927,2.866l1.351,-3.719l-2.278,0.853Z" style="fill:#b4857b;"/><path d="M54.443,39.203l0,3.719l-1.382,0l1.382,-3.719Z" style="fill:#fff;"/><path d="M54.443,41.063l1.229,1.859l-1.229,0l0,-1.859Z" style="fill:#fff;"/><path d="M55.428,42.427l0.244,0.495l0.769,0l-1.013,-0.495Z" style="fill:#fff;"/><path d="M49.632,38.35l2.533,1.706l0.896,2.866l-3.429,-4.572Z" style="fill:#9a6d64;"/><path d="M49.632,38.35l3.429,4.572l-3.081,0.927l-0.348,-5.499Z" style="fill:#9a6d64;"/><path d="M49.632,38.35l0.389,5.499l-1.333,1.723l0.944,-7.222Z" style="fill:#a6786f;"/><path d="M49.894,43.971l2.363,2.864l-3.569,-1.263l1.206,-1.601Z" style="fill:#976a61;"/><path d="M50.021,44.131l10.916,-0.946l-8.68,3.65l-2.236,-2.704Z" style="fill:#976a61;"/><path d="M52.257,46.835l3.851,2.132l-0.676,-3.466l-3.175,1.334Z" style="fill:#80554d;"/><path d="M56.108,48.967l5.859,-1.847l-6.535,-1.619l0.676,3.466Z" style="fill:#70473f;"/><path d="M55.432,45.501l5.505,-2.316l-1.891,3.27l-3.614,-0.954Z" style="fill:#8f635a;"/><path d="M59.022,46.491l6.381,-3.879l-3.436,4.508l-2.945,-0.629Z" style="fill:#996c63;"/><path d="M60.937,43.185l4.466,-0.573l-6.381,3.879l1.915,-3.306Z" style="fill:#ac7e74;"/><path d="M64.187,29.451l4.214,2.407l-4.214,1.758l0,-4.165Z" style="fill:#7e534b;"/><path d="M64.187,33.616l3.917,5.244l-2.733,0l-1.184,-2.1l0,-3.144Z" style="fill:#70473f;"/><path d="M64.187,36.77l-1.366,2.09l2.55,0l-1.184,-2.09Z" style="fill:#b4857b;"/><path d="M62.169,35.839l0.652,3.021l1.366,-2.086l-2.018,-0.935Z" style="fill:#ad7f75;"/><path d="M65.371,38.86l-1.634,3.859l-0.916,-3.859l2.55,0Z" style="fill:#7a5048;"/><path d="M51.879,36.754l3.27,0l6.76,2.106l-10.03,-2.106Z" style="fill:#a07369;"/><path d="M61.909,38.86l-4.149,-5.069l-2.611,3.019l6.76,2.05Z" style="fill:#976a61;"/><path d="M61.909,38.86l0.32,-3.055l-4.469,-2.014l4.149,5.069Z" style="fill:#8f635a;"/><path d="M61.909,38.86l0.912,0l-0.592,-3.021l-0.32,3.021Z" style="fill:#94675e;"/><path d="M61.729,39.293l0.325,0l-0.145,0.861l-0.18,-0.861Z" style="fill:#fff;"/><path d="M61.909,40.154l-0.841,2.025l2.681,0.54l-1.84,-2.565Z" style="fill:#976a61;"/><path d="M61.909,40.154l0.912,-1.294l0.928,3.859l-1.84,-2.565Z" style="fill:#976a61;"/><path d="M61.068,42.187l-0.602,0.688l0.602,0.107l0,-0.795Z" style="fill:#fff;"/><path d="M61.068,42.187l0,0.795l2.681,-0.263l-2.681,-0.532Z" style="fill:#fff;"/><path d="M64.187,33.616l4.214,-1.758l-0.295,7.002l-3.919,-5.244Z" style="fill:#573029;"/><path d="M68.64,33.3l0.851,-1.267l1.657,2.176l-2.508,-0.909Z" style="fill:#70463e;"/><path d="M68.64,33.3l2.508,0.909l-0.205,2.809l-2.303,-3.718Z" style="fill:#573029;"/><path d="M68.335,33.3l0.305,0l2.299,3.718l-2.604,-3.718Z" style="fill:#5f3730;"/><path d="M68.337,33.3l-0.06,1.729l2.662,1.989l-2.602,-3.718Z" style="fill:#6e453d;"/><path d="M70.939,37.018l-1.421,1.287l-1.241,-3.284l2.662,1.997Z" style="fill:#401c16;"/><path d="M68.104,38.86l0.173,-3.839l1.274,3.284l-1.447,0.555Z" style="fill:#4b251f;"/><path d="M65.371,38.795l-1.622,3.924l1.654,-0.107l-0.032,-3.817Z" style="fill:#8f635a;"/><path d="M65.403,42.612l2.014,2.304l-3.758,-0.05l1.744,-2.254Z" style="fill:#8f635a;"/><path d="M63.663,44.866l1.92,4.091l-3.748,-1.704l1.828,-2.387Z" style="fill:#8f635a;"/><path d="M65.583,48.957l-1.924,-4.091l3.758,0.05l-1.834,4.041Z" style="fill:#aa7c73;"/><path d="M65.583,48.957l2.527,5.198l-3.874,6.22l1.347,-11.418Z" style="fill:#8f635a;"/><path d="M63.347,49.752l0.413,4.914l-4.716,-3.874l4.303,-1.04Z" style="fill:#6c433b;"/><path d="M51.891,52.575l3.614,3.159l4.11,-0.567l-7.724,-2.592Z" style="fill:#82574f;"/><path d="M59.615,55.167l-0.571,-4.358l-7.153,1.766l7.724,2.592Z" style="fill:#744a42;"/><path d="M59.044,50.809l4.716,3.857l-4.145,0.501l-0.571,-4.358Z" style="fill:#613931;"/><path d="M55.505,55.734l6.409,0.436l-2.299,-1.003l-4.11,0.567Z" style="fill:#8e6259;"/><path d="M61.914,56.17l1.846,-1.504l-4.145,0.501l2.299,1.003Z" style="fill:#8a5f56;"/><path d="M67.417,44.916l2.648,-2.418l-4.674,-3.703l2.026,6.121Z" style="fill:#532c25;"/><path d="M67.417,44.916l-2.014,-2.304l-0.032,-3.817l2.046,6.121Z" style="fill:#6c433b;"/><path d="M70.065,42.498l2.282,9.949l-4.93,-7.531l2.648,-2.418Z" style="fill:#48231c;"/><path d="M72.347,52.447l1.954,-4.469l-2.951,0l0.997,4.469Z" style="fill:#663e36;"/><path d="M74.301,47.978l1.212,-6.09l-4.163,6.09l2.951,0Z" style="fill:#6a4139;"/><path d="M71.35,47.978l-1.285,-5.48l0.773,-5.011l0.077,-0.469l0.435,10.96Z" style="fill:#38150e;"/><path d="M71.35,47.978l-0.213,-6.09l4.376,0l-4.163,6.09Z" style="fill:#6b423a;"/><path d="M75.289,31.858l0.224,10.03l-4.365,-7.679l4.141,-2.351Z" style="fill:#603831;"/><path d="M69.491,32.033l5.798,-0.175l-4.141,2.351l-1.657,-2.176Z" style="fill:#562f28;"/><path d="M71.137,34.193l-0.222,2.825l0.222,4.87l4.376,0l-4.376,-7.695Z" style="fill:#7c5249;"/><path d="M69.491,38.254l1.424,-1.236l-0.85,5.48l-0.574,-4.244Z" style="fill:#5c352e;"/><path d="M68.105,38.795l1.386,-0.541l0.574,4.244l-1.96,-3.703Z" style="fill:#3e1a14;"/><path d="M65.391,38.795l2.714,0l1.96,3.703l-4.674,-3.703Z" style="fill:#4f2922;"/><path d="M75.513,41.888l0.804,0l0.084,1.866l-0.888,-1.866Z" style="fill:#5b342d;"/><path d="M76.317,41.888l2.283,-1.989l0.814,2.096l-3.097,-0.107Z" style="fill:#5b342d;"/><path d="M81.869,39.003l0.258,1.944l-1.723,1.316l-0.815,0l-0.175,-0.268l-0.816,-2.096l2.874,-0.788l0.397,-0.108Z" style="fill:#734a42;"/><path d="M78.63,39.899l1.272,-1.147l1.979,0.251l-3.251,0.896Z" style="fill:#8f635a;"/><path d="M79.595,42.26l0.793,0l1.655,-1.303l0.965,-1.12l0.485,-1.439l0.184,0.942l0.441,0.497l1.055,0.559l1.145,0.37l-1.497,2.255l-2.052,6.215l0.253,5.019l-0.46,-1.288l-2.583,-1.93l-1.886,2.287l1.886,-3.108l2.583,1.831l-0.238,-2.811l2.106,-6.215l1.282,-2.064l-1.282,-0.561l-0.937,-0.559l-0.485,0.929l-1.243,0.964l-1.377,1.028l-0.793,-0.498Z" style="fill:#a7796f;"/><path d="M76.404,43.754l2.236,1.311l0.774,-3.07l-3.01,1.759Z" style="fill:#8f635a;"/><path d="M67.976,54.113l4.414,-1.562l-4.973,-7.635l0.559,9.197Z" style="fill:#8f635a;"/><path d="M67.976,54.113l4.414,-1.562l3.367,1.562l-7.781,0Z" style="fill:#724840;"/><path d="M72.981,64.253l0.746,-5.547l-9.691,1.895l-1.109,10.465l10.054,-6.813Z" style="fill:#92665d;"/><path d="M64.036,60.601l3.94,-6.488l5.751,4.593l-9.691,1.895Z" style="fill:#8f635a;"/><path d="M67.976,54.113l7.781,0l-2.03,4.593l-5.751,-4.593Z" style="fill:#7f544c;"/><path d="M22.414,47.61l-3.263,8.063l5.319,5.075l-2.056,-13.138Z" style="fill:#ad7e75;"/><path d="M24.467,60.748l3.001,-5.896l-3.519,-0.673l0.518,6.569Z" style="fill:#9e7167;"/><path d="M23.949,54.179l2.812,-4.431l-3.154,0l0.342,4.431Z" style="fill:#875b53;"/><path d="M26.761,49.748l-2.812,4.431l3.512,0.673l-0.7,-5.104Z" style="fill:#8f635a;"/><path d="M27.461,54.852l4.662,-5.104l-5.362,0l0.7,5.104Z" style="fill:#7d534a;"/><path d="M27.461,54.852l3.729,1.091l-6.723,4.805l2.994,-5.896Z" style="fill:#a4766d;"/><path d="M24.467,60.748l4.285,-3.07l0,3.842l-4.285,-0.772Z" style="fill:#94685e;"/><path d="M28.752,59.599l1.701,-0.289l-1.701,2.21l0,-1.921Z" style="fill:#a1736a;"/><path d="M30.453,59.31l-1.701,2.21l4.513,0.919l-2.812,-3.129Z" style="fill:#af8177;"/><path d="M22.427,47.397l0,-2.968l4.183,1.379l-4.183,1.589Z" style="fill:#b5867c;"/><path d="M22.427,44.429l-1.869,-6.942l3.903,3.066l-2.034,3.876Z" style="fill:#8f635a;"/><path d="M32.096,39.701l-0.283,0.782l2.708,-0.421l-2.425,-0.361Z" style="fill:#966960;"/><path d="M34.521,40.062l-0.238,-0.361l-2.197,0l2.435,0.361Z" style="fill:#b2847a;"/><path d="M20.497,33.096l4.021,-1.03l-4.021,3.225l0,-2.195Z" style="fill:#ae8076;"/><path d="M20.497,35.291l2.011,1.631l1.959,-4.856l-3.97,3.225Z" style="fill:#ae8076;"/><path d="M22.508,36.922l9.59,2.784l-7.58,-7.64l-2.01,4.856Z" style="fill:#ae8076;"/><path d="M24.518,32.066l8.648,3.225l-1.068,4.415l-7.58,-7.64Z" style="fill:#90645b;"/><path d="M32.098,39.706l2.184,0l-1.116,-4.415l-1.068,4.415Z" style="fill:#ae8076;"/><path d="M33.19,35.291l1.092,4.415l3.651,0.421l-4.743,-4.836Z" style="fill:#ae8076;"/><path d="M75.751,54.121l2.769,0.479l-1.362,0.768l-1.407,-1.247Z" style="fill:#8f635a;"/><path d="M78.52,54.6l-0.232,3.057l-1.13,-2.289l1.362,-0.768Z" style="fill:#8f635a;"/><path d="M78.52,54.6l1.989,2.344l-2.221,0.713l0.232,-3.057Z" style="fill:#784e45;"/><path d="M78.52,54.6l4.517,-0.39l0.358,2.487l-2.904,0.247l-1.971,-2.344Z" style="fill:#7f544c;"/><path d="M78.093,53.325l1.891,-2.305l2.561,1.934l-4.452,0.371Z" style="fill:#8f635a;"/><path d="M78.093,53.325l0.427,1.275l4.025,-1.646l-4.452,0.371Z" style="fill:#8f635a;"/><path d="M78.52,54.6l4.025,-1.646l0.477,1.301l-4.502,0.345Z" style="fill:#8f635a;"/><path d="M28.743,39.484l0.654,1.214l1.139,-0.791l-1.793,-0.423Z" style="fill:#4d4d4d;"/><path d="M25.837,40.996l0.806,0.492l-0.544,0.458l-0.262,-0.95Z" style="fill:#595959;"/><path d="M58.803,27.561l4.025,-2.045l1.373,3.774l-5.398,-1.729Z" style="fill:#161616;"/><path d="M62.848,25.516l-0.976,-1.502l2.401,0.958l-1.425,0.544Z" style="fill:#232323;"/><path d="M48.604,7.132l-4.737,6.684l2.192,7.009l2.545,-13.693Z" style="fill:#a5776e;"/><path d="M47.052,34.841l-1.941,7.019l3.207,-6.034l-1.266,-0.985Z" style="fill:#a3756c;"/><path d="M20.558,37.487l-0.079,-0.979l2.417,2.843l-2.338,-1.864Z" style="fill:#83584f;"/><path d="M21.474,37.638l3.701,1.146l-0.078,1.769l-2.201,-1.202l-1.422,-1.713Z" style="fill:#996c63;"/><path d="M22.896,39.351l2.201,1.202l-0.636,0l-1.565,-1.202Z" style="fill:#a5776e;"/><path d="M24.461,40.553l0.636,0l0.5,1.634l-2.473,0.886l1.337,-2.52Z" style="fill:#8d6158;"/><path d="M23.132,43.064l3.505,2.752l-4.22,-1.379l0.715,-1.373Z" style="fill:#a3756c;"/><path d="M23.997,43.743l10.033,0l-7.42,2.073l-2.613,-2.073Z" style="fill:#a97b72;"/><path d="M22.417,47.61l0.321,2.161l0.876,0l-1.197,-2.161Z" style="fill:#7f544b;"/><path d="M22.738,49.771l1.211,4.401l-0.335,-4.401l-0.876,0Z" style="fill:#794f47;"/><path d="M23.949,54.172l-0.506,0l-0.705,-4.401l1.211,4.401Z" style="fill:#a3756c;"/><path d="M23.614,49.771l2.804,-1.863l-3.991,-0.298l1.187,2.161Z" style="fill:#734a42;"/><path d="M22.427,47.61l0,-0.252l4.158,-1.542l-0.167,2.06l-3.991,-0.266Z" style="fill:#7d524a;"/><path d="M26.585,45.816l2.428,1.19l-2.595,0.87l0.167,-2.06Z" style="fill:#986b62;"/><path d="M29.013,47.006l3.11,2.742l-5.705,-1.872l2.595,-0.87Z" style="fill:#8b6057;"/><path d="M26.585,45.816l2.19,-0.638l0.238,1.828l-2.428,-1.19Z" style="fill:#92655c;"/><path d="M28.775,45.178l5.269,-1.456l-5.031,3.284l-0.238,-1.828Z" style="fill:#9e7167;"/><path d="M34.044,43.722l-1.921,6.026l-3.11,-2.742l5.031,-3.284Z" style="fill:#a3766d;"/><path d="M31.81,40.482l0.313,1.126l1.044,-0.659l-1.357,-0.467Z" style="fill:#8b6057;"/><path d="M32.123,41.608l-0.594,1.061l1.638,0l-1.044,-1.061Z" style="fill:#ab7d73;"/><path d="M33.167,42.669l1.349,-2.606l-2.392,1.545l1.043,1.061Z" style="fill:#966a60;"/><path d="M34.282,39.706l2.902,0.335l-2.668,0.022l-0.234,-0.357Z" style="fill:#a2746b;"/><path d="M34.516,40.063l-1.349,2.606l3.145,0.235l-1.796,-2.841Z" style="fill:#b4857b;"/><path d="M33.167,42.669l0.883,1.107l2.262,-0.872l-3.145,-0.235Z" style="fill:#a97b72;"/><path d="M36.312,42.904l-1.796,6.95l-0.465,-6.078l2.261,-0.872Z" style="fill:#ba8b81;"/><path d="M34.516,49.854l-2.392,-0.099l1.927,-6.061l0.465,6.16Z" style="fill:#b5877d;"/><path d="M27.474,54.815l4.65,-5.068l1.927,2.112l-6.577,2.956Z" style="fill:#b98a80;"/><path d="M32.124,49.747l2.392,0.107l-0.465,2.028l-1.927,-2.135Z" style="fill:#a7796f;"/><path d="M27.474,54.815l3.548,-1.581l0.154,2.691l-3.702,-1.11Z" style="fill:#be8f85;"/><path d="M31.176,55.925l1.535,-0.766l-1.689,-1.925l0.154,2.691Z" style="fill:#a2746b;"/><path d="M31.022,53.234l3.011,1.029l-1.322,0.91l-1.689,-1.939Z" style="fill:#cb9b91;"/><path d="M34.033,51.882l0,2.381l-3.011,-1.029l3.011,-1.352Z" style="fill:#b18379;"/><path d="M34.52,40.064l1.795,2.851l0.869,-2.874l-2.664,0.023Z" style="fill:#9b6e65;"/><path d="M56.056,48.694l5.779,-1.574l-5.727,1.847l-0.052,-0.273Z" style="fill:#603830;"/><path d="M56.108,48.967l5.727,-1.847l1.512,2.632l-7.239,-0.785Z" style="fill:#673f36;"/><path d="M61.835,47.12l3.748,1.847l-2.236,0.785l-1.512,-2.632Z" style="fill:#855a50;"/><path d="M63.347,49.752l0.894,10.791l1.342,-11.576l-2.236,0.785Z" style="fill:#845950;"/><path d="M52.205,46.761l-0.314,5.814l0.155,-0.132l4.062,-3.476l-3.903,-2.206Z" style="fill:#774d45;"/><path d="M74.301,47.978l2.1,-4.333l-0.888,-1.757l-1.212,6.09Z" style="fill:#8d6158;"/><path d="M76.401,43.645l2.321,1.288l-4.421,3.045l2.1,-4.333Z" style="fill:#7b5048;"/><path d="M76.256,41.888l3.158,0.107l-3.013,1.759l-0.145,-1.866Z" style="fill:#6e453d;"/><path d="M61.954,56.12l1.806,-1.454l0.476,5.709l-2.282,-4.255Z" style="fill:#a87b71;"/><path d="M60.889,68.338l3.347,-7.963l-2.282,-4.271l-1.065,12.234Z" style="fill:#7b5148;"/><path d="M39.75,41.815l-0.392,3.757l3.949,-0.943l-3.557,-2.814Z" style="fill:#8b5f56;"/><path d="M43.307,44.629l-5.306,3.804l1.357,-2.861l3.949,-0.943Z" style="fill:#956960;"/><path d="M38.001,48.433l1.357,2.898l3.949,-6.702l-5.306,3.804Z" style="fill:#91655c;"/><path d="M39.358,51.331l-0.712,2.107l2.686,0.52l-1.974,-2.627Z" style="fill:#95685f;"/><path d="M41.332,53.958l4.451,-1.01l-6.425,-1.617l1.974,2.627Z" style="fill:#9d7066;"/><path d="M45.783,52.948l-2.476,-3.174l-3.949,1.557l6.425,1.617Z" style="fill:#a7796f;"/><path d="M39.358,51.331l1.974,-3.351l1.975,1.794l-3.949,1.557Z" style="fill:#9e7168;"/><path d="M43.307,49.774l0,-5.145l-1.975,3.351l1.975,1.794Z" style="fill:#a4766d;"/><path d="M55.505,55.734l5.384,12.604l1.065,-12.185l-6.449,-0.419Z" style="fill:#a1746a;"/><path d="M54.667,64.348l6.222,3.99l-5.384,-12.604l-0.838,8.614Z" style="fill:#a6796f;"/><path d="M45.783,52.948l1.019,-0.303l-3.495,-2.871l2.476,3.174Z" style="fill:#8f635a;"/><path d="M46.802,52.645l2.447,1.313l0.863,-2.079l-3.31,0.766Z" style="fill:#92665d;"/><path d="M49.249,53.958l0.864,3.278l1.796,-1.295l-2.66,-1.983Z" style="fill:#8f635b;"/><path d="M50.116,57.236l-0.867,1.343l1.313,0.446l-0.446,-1.789Z" style="fill:#8f635a;"/><path d="M49.249,58.579l-3.446,2.088l4.156,0.589l-0.71,-2.677Z" style="fill:#8f635a;"/><path d="M43.886,61.256l-1.801,-1.314l-1.262,2.543l3.063,-1.229Z" style="fill:#90645b;"/><path d="M42.085,59.942l-1.262,0.714l0,1.829l1.262,-2.543Z" style="fill:#9d7066;"/><path d="M49.959,61.256l5.546,-5.522l-4.943,3.291l-0.603,2.231Z" style="fill:#9c6f66;"/><path d="M49.249,58.579l1.313,0.446l-0.603,2.231l-0.71,-2.677Z" style="fill:#81564e;"/><path d="M49.959,61.256l5.546,-5.522l-1.167,8.516l-4.379,-2.994Z" style="fill:#956960;"/><path d="M50.112,57.233l5.393,-1.499l-4.944,3.291l-0.449,-1.792Z" style="fill:#a6786f;"/><path d="M51.891,55.946l-1.779,1.287l5.393,-1.499l-3.614,0.212Z" style="fill:#9c6f66;"/><path d="M51.891,52.575l0,3.371l3.614,-0.212l-3.614,-3.159Z" style="fill:#a4766d;"/><path d="M49.238,53.958l2.653,-1.383l0,3.371l-2.653,-1.988Z" style="fill:#ae8076;"/><path d="M51.891,52.575l-1.779,-0.696l-0.874,2.079l2.653,-1.383Z" style="fill:#a3766d;"/><path d="M50.112,51.879l2.138,-5.032l-0.359,5.728l-1.779,-0.696Z" style="fill:#aa7c72;"/><path d="M48.349,48.638l1.763,3.241l2.138,-5.032l-3.901,1.791Z" style="fill:#9d7067;"/><path d="M46.802,52.656l3.31,-0.777l-1.763,-3.241l-1.547,4.018Z" style="fill:#a5776e;"/><path d="M43.307,49.774l5.042,-1.136l-1.547,4.018l-3.495,-2.882Z" style="fill:#a0736a;"/><path d="M43.307,44.629l5.042,4.009l-5.042,1.136l0,-5.145Z" style="fill:#a87b71;"/><path d="M54.337,64.25l0.338,0l0.83,-8.516l-1.168,8.516Z" style="fill:#d1a096;"/><path d="M79.596,42.26l-0.182,-0.265l-0.187,0.762l0.369,-0.497Z" style="fill:#7b5149;"/><path d="M79.227,42.757l1.165,0l-0.796,-0.51l-0.369,0.51Z" style="fill:#855951;"/><path d="M78.706,44.993l1.686,-2.236l-1.165,0l-0.521,2.236Z" style="fill:#92665d;"/><path d="M80.392,42.757l-0.122,2.308l-1.564,-0.072l1.686,-2.236Z" style="fill:#855951;"/><path d="M78.706,44.993l1.306,5.22l0.373,-5.148" style="fill:#90645b;"/><path d="M74.309,47.938l4.397,-2.945l1.321,5.22l-5.718,-2.275Z" style="fill:#a4766d;"/><path d="M75.772,54.145l-3.4,-1.584l1.937,-4.636l1.463,6.22Z" style="fill:#885c53;"/><path d="M80.027,50.213l-1.917,3.086l-3.801,-5.374l5.718,2.288Z" style="fill:#b8897f;"/><path d="M78.11,53.299l0.449,1.334l-2.787,-0.488l2.338,-0.846Z" style="fill:#a97b71;"/><path d="M74.309,47.925l1.463,6.22l2.405,-0.846l-3.868,-5.374Z" style="fill:#c7978d;"/><path d="M23.448,54.179l0.501,0l0.516,6.569l-1.017,-6.569Z" style="fill:#bc8d83;"/><path d="M41.546,74.23l0.989,-0.752l0.912,1.103l-1.901,-0.351Z" style="fill:#edd0be;"/><path d="M33.837,81.495l0.816,2.377l0.811,-1.341l-1.627,-1.036Z" style="fill:#b5867d;"/><path d="M34.653,83.872l0.811,-1.341l0.055,2.205l-0.866,-0.864Z" style="fill:#a4776d;"/><path d="M35.464,82.531l1.421,0l-1.366,2.205l-0.055,-2.205Z" style="fill:#ba8b81;"/><path d="M36.885,82.531l0.329,2.452l-1.695,-0.247l1.366,-2.205Z" style="fill:#a97b71;"/><path d="M38.548,82.531l-1.483,1.341l-0.18,-1.341l1.663,0Z" style="fill:#ba8b81;"/><path d="M37.065,83.872l2.015,0l-0.532,-1.341l-1.483,1.341Z" style="fill:#b98a80;"/><path d="M37.214,84.983l1.63,0.269l0.236,-0.758l-1.866,0.489Z" style="fill:#754c43;"/><path d="M39.08,84.494l0,-0.622l-2.015,0l0.149,1.111l1.866,-0.489Z" style="fill:#9f7268;"/><path d="M39.08,83.872l1.355,-1.341l-1.887,0l0.532,1.341Z" style="fill:#c29389;"/><path d="M40.435,82.531l1.233,1.341l-0.894,0.555l-0.339,-1.896Z" style="fill:#b7887e;"/><path d="M39.08,83.872l1.355,-1.341l0.388,1.896l-1.743,-0.555Z" style="fill:#b08278;"/><path d="M40.823,84.427l-1.743,0.067l0,-0.622l1.743,0.555Z" style="fill:#ab7d73;"/><path d="M39.08,84.494l1.743,-0.067l0,0.643l-1.953,0.134l0.21,-0.71Z" style="fill:#83584f;"/><path d="M41.668,83.872l0.964,-1.341l-2.167,0l1.203,1.341Z" style="fill:#ad7f75;"/><path d="M42.632,82.531l0.811,1.813l-1.894,-0.472l1.083,-1.341Z" style="fill:#b98a80;"/><path d="M43.443,84.344l1.47,-0.472l-2.281,-1.341l0.811,1.813Z" style="fill:#b18379;"/><path d="M42.632,82.531l1.95,-0.471l0.331,1.812l-2.281,-1.341Z" style="fill:#be8f85;"/><path d="M44.582,82.06l2.289,-0.627l-1.958,2.439l-0.331,-1.812Z" style="fill:#b2837a;"/><path d="M46.871,81.433l1.196,-0.87l-0.272,1.181l-0.924,-0.311Z" style="fill:#bf8f85;"/><path d="M44.913,83.872l1.958,-1.543l0,-0.896l-1.958,2.439Z" style="fill:#c19288;"/><path d="M46.871,81.433l0.927,0.305l-0.927,0.591l0,-0.896Z" style="fill:#b3847a;"/><path d="M48.067,80.563l1.166,-0.741l-1.435,1.916l0.269,-1.175Z" style="fill:#b4857c;"/><path d="M44.913,83.872l0.979,0.858l-2.449,-0.429l1.47,-0.429Z" style="fill:#a4776d;"/><path d="M45.892,84.73l0.979,-0.429l-1.958,-0.429l0.979,0.858Z" style="fill:#ad7f76;"/><path d="M44.913,83.872l1.958,-1.543l0.464,1.155l-0.464,0.817l-1.958,-0.429Z" style="fill:#b8897f;"/><path d="M47.335,83.484l0.463,-0.831l0,-0.915l-0.927,0.591l0.464,1.155Z" style="fill:#a7796f;"/><path d="M47.798,82.653l1.435,-2.831l-1.435,1.916l0,0.915Z" style="fill:#be8e85;"/><path d="M40.823,84.427l5.069,0.303l-5.069,0.348l0,-0.651Z" style="fill:#7e534b;"/><path d="M41.668,83.872l4.224,0.859l-5.069,-0.304l0.845,-0.555Z" style="fill:#986b62;"/><path d="M28.039,67.448l1.132,1.916l1.916,1.31l0,-3.226l-3.048,0Z" style="fill:#f4f5f5;"/><path d="M31.087,67.448l3.537,0l-3.537,3.226l0,-3.226Z" style="fill:#f4f5f5;"/><path d="M34.624,67.448l3.589,3.226l-7.126,0l3.537,-3.226Z" style="fill:#fefffe;"/><path d="M38.213,70.674l1.859,-3.226l-5.422,0l3.563,3.226Z" style="fill:#fff;"/><path d="M40.072,67.448l1.81,3.226l-3.669,0l1.859,-3.226Z" style="fill:#fff;"/><path d="M45.459,70.674l-2.112,-3.226l-1.465,3.226l3.577,0Z" style="fill:#fff;"/><path d="M40.072,67.448l3.275,0l-1.465,3.226l-1.81,-3.226Z" style="fill:#f0f1f1;"/><path d="M34.65,67.448l3.563,3.226l1.859,-3.226l-5.422,0Z" style="fill:#fff;"/><path d="M28.039,67.448l0,-0.846l3.048,0.846l-3.048,0Z" style="fill:#dfdfdf;"/><path d="M41.417,89.296l4.044,0l-0.634,2.06l-3.41,-2.06Z" style="fill:#7e534b;"/><path d="M38.846,86.366l3.072,0l-0.501,2.93l-2.571,-2.93Z" style="fill:#000001;"/><path d="M31.138,70.734l2.724,0l-1.611,2.752l-1.113,-2.752Z" style="fill:#fae0ce;"/><path d="M29.163,69.364l1.975,1.37l-0.785,1.806l-1.19,-3.176Z" style="fill:#fadfce;"/><path d="M30.353,72.54l0.785,-1.806l1.113,2.752l-1.898,-0.946Z" style="fill:#fff2e0;"/><path d="M32.251,73.486l0,3.292l-1.898,-4.238l1.898,0.946Z" style="fill:#f3d7c5;"/><path d="M48.3,70.166l2.742,-1.81l-1.737,5.13l-1.005,-3.32Z" style="fill:#eacdbc;"/><path d="M49.305,73.486l0,3.292l-2.077,0l2.077,-3.292Z" style="fill:#e1c4b3;"/><path d="M48.3,70.246l-1.072,1.62l2.077,1.62l-1.005,-3.24Z" style="fill:#e7cab9;"/><path d="M45.516,70.921l2.784,-0.675l-1.072,1.62l-1.712,-0.945Z" style="fill:#f2d5c3;"/><path d="M44.579,72.54l-2.012,0.946l0.883,1.076l1.129,-2.022Z" style="fill:#ffe9d7;"/><path d="M43.45,74.562l1.129,-2.022l0,2.816l-1.129,-0.794Z" style="fill:#fbe2d1;"/><path d="M44.579,75.356l-1.129,-0.794l1.209,2.208l-0.08,-1.414Z" style="fill:#eccfbe;"/><path d="M44.579,72.54l2.649,-0.674l-1.701,-0.945l-0.948,1.619Z" style="fill:#fff1df;"/><path d="M47.228,71.866l0.036,4.912l2.032,-3.292l-2.068,-1.62Z" style="fill:#f7dbc9;"/><path d="M44.579,72.54l2.685,4.238l-0.003,-0.363l-0.033,-4.549l-2.649,0.674Z" style="fill:#fee5d4;"/><path d="M44.579,75.323l1.524,-0.436l-1.524,-2.347l0,2.783Z" style="fill:#fed;"/><path d="M45.382,76.778l1.882,0l-1.161,-1.891l-1.524,0.436l0.803,1.455Z" style="fill:#fae0ce;"/><path d="M37.194,73.85l1.769,-0.417l1.589,0.417l-1.339,0.392l-2.019,-0.392Z" style="fill:#f2d6c4;"/><path d="M40.407,73.838l2.197,-0.405l-1.051,0.779l-1.146,-0.374Z" style="fill:#fce2d1;"/><path d="M43.447,74.581l-1.246,0.742l-0.648,-1.111l1.894,0.369Z" style="fill:#fbe1cf;"/><path d="M43.447,74.581l-0.275,2.248l-0.958,-1.506l1.233,-0.742Z" style="fill:#f2d6c5;"/><path d="M41.537,75.684l1.626,1.094l-2.272,0l0.646,-1.094Z" style="fill:#ffead9;"/><path d="M40.174,75.684l0.717,1.094l-1.678,0l0.961,-1.094Z" style="fill:#f9ddcb;"/><path d="M43.447,74.581l1.209,2.197l-1.493,0l0.284,-2.197Z" style="fill:#ebcebc;"/><path d="M32.251,73.486l0,0.727l0.866,-0.727l-0.866,0Z" style="fill:#f3d7c6;"/><path d="M32.251,74.213l0,2.565l1.611,-1.479l-1.611,-1.086Z" style="fill:#fce4d2;"/><path d="M32.251,76.778l3.376,0l-1.765,-1.5l-1.611,1.5Z" style="fill:#ffead9;"/><path d="M35.627,76.778l0,-4.357l-1.816,2.818l1.816,1.539Z" style="fill:#fbe2d0;"/><path d="M35.627,72.421l1.601,1.429l-1.601,2.928l0,-4.357Z" style="fill:#f0d3c2;"/><path d="M37.228,73.85l1.985,0.363l-3.586,2.565l1.601,-2.928Z" style="fill:#fadfcd;"/><path d="M39.213,74.213l1.327,-0.363l1.006,0.363l-2.333,0Z" style="fill:#fff0de;"/><path d="M41.546,74.213l1.586,2.565l-1.586,-1.094l0,-1.471Z" style="fill:#faddcc;"/><path d="M39.213,74.213l0.961,1.471l1.372,-1.471l-2.333,0Z" style="fill:#fde5d3;"/><path d="M40.174,75.684l0.724,1.094l0.648,-1.094l-1.372,0Z" style="fill:#f2d5c3;"/><path d="M41.546,75.684l0,-1.471l-1.372,1.471l1.372,0Z" style="fill:#f2d4c3;"/><path d="M40.174,75.684l-0.961,-1.471l0,2.565l0.961,-1.094Z" style="fill:#edd0bf;"/><path d="M39.213,76.778l-0.975,-1.094l0.975,-0.736l0,1.83Z" style="fill:#ffead8;"/><path d="M39.213,74.948l0,-0.735l-1.073,0.735l1.073,0Z" style="fill:#eacdbc;"/><path d="M38.238,74.948l0,0.736l0.975,-0.736l-0.975,0Z" style="fill:#f2d5c3;"/><path d="M38.238,75.684l-1.138,1.094l2.113,0l-0.975,-1.094Z" style="fill:#fce3d1;"/><path d="M37.1,75.705l1.138,-0.82l0,0.799l-1.138,0.021Z" style="fill:#f5d9c8;"/><path d="M38.238,75.684l-0.943,1.094l-1.663,0l1.478,-1.073l1.128,-0.021Z" style="fill:#ffe8d6;"/><path d="M81.866,39.005l1.04,-3.334l-3.004,3.081l1.964,0.253Z" style="fill:#5b342d;"/><path d="M82.906,35.671l0.656,-1.252l0,0.992l-0.656,0.26Z" style="fill:#5b342d;"/><path d="M83.562,34.419l0.747,1.626l-0.747,-0.61l0,-1.016Z" style="fill:#5b342d;"/><path d="M84.309,36.045l4.029,4.351l-3.233,-1.071l-0.796,-3.28Z" style="fill:#5d362e;"/><path d="M88.338,40.396l1.094,0.286l-0.805,0.836l-0.289,-1.122Z" style="fill:#5d362e;"/><path d="M88.338,40.396l-1.3,3.358l1.581,-2.236l-0.281,-1.122Z" style="fill:#7e534b;"/><path d="M85.107,39.309l1.931,1.457l1.3,-0.37l-3.231,-1.087Z" style="fill:#80554d;"/><path d="M87.038,40.766l0,2.988l1.3,-3.358l-1.3,0.37Z" style="fill:#8f635a;"/><path d="M87.038,40.766l-0.72,0l0.72,2.988l0,-2.988Z" style="fill:#8f635a;"/><path d="M86.318,40.766l-1.55,2.3l0.053,4.021l2.217,-3.333l-0.72,-2.988Z" style="fill:#5d362e;"/><path d="M84.821,47.087l0.594,1.527l1.623,-4.86l-2.217,3.333Z" style="fill:#5d362e;"/><path d="M63.291,84.487l4.126,-10.527l-4.49,-2.894l0.364,13.421Z" style="fill:#8f635a;"/><path d="M62.927,71.066l10.054,-6.813l-5.564,9.775l-4.49,-2.962Z" style="fill:#7f544c;"/><path d="M39.877,91.317l1.54,-2.021l3.41,2.021l-1.784,1.551l-1.672,0l-1.494,-1.551Z" style="fill:#6a4139;"/><path d="M43.044,92.868l3.422,-1.209l-1.639,-0.367l-1.783,1.576Z" style="fill:#9d7067;"/><path d="M44.827,91.292l0.632,-1.996l4.589,-0.615l-3.582,2.979l-1.639,-0.368Z" style="fill:#895d54;"/><path d="M46.489,91.659l6.832,-1.977l-3.273,-1.001l-3.559,2.978Z" style="fill:#6a413a;"/><path d="M50.048,88.681l3.273,-1.542l0,2.582l-3.273,-1.04Z" style="fill:#46211b;"/><path d="M50.048,88.681l1.704,-5.469l3.326,3.114l-5.03,2.355Z" style="fill:#a4766d;"/><path d="M53.321,89.721l0,-2.52l4.162,0.21l-4.162,2.31Z" style="fill:#754c43;"/><path d="M55.078,86.241l2.405,1.279l-4.274,-0.336l1.869,-0.943Z" style="fill:#8f635a;"/><path d="M57.483,87.52l1.279,-6.729l-3.36,0l-0.324,5.575l2.405,1.154Z" style="fill:none;stroke:#8f635a;stroke-width:1px;"/><path d="M58.762,80.791l4.582,3.652l-5.861,3.077l1.279,-6.729Z" style="fill:#8f635a;"/><path d="M58.762,80.791l0.764,-6.997l3.769,10.603l-4.533,-3.606Z" style="fill:#a4766d;"/><path d="M59.526,73.794l3.401,-2.728l0.368,13.331l-3.769,-10.603Z" style="fill:#8f635a;"/><path d="M51.796,83.489l3.607,-2.698l-0.325,5.57l-3.282,-2.872Z" style="fill:#8f635a;"/><path d="M51.821,83.576l-2.525,-0.718l0,-9.064l2.525,9.782Z" style="fill:#81564e;"/><path d="M51.2,68.292l2.928,4.72l-4.832,0.782l1.904,-5.502Z" style="fill:#9d7067;"/><path d="M51.2,68.292l3.467,-3.944l-1.013,4.35l-2.454,-0.406Z" style="fill:#a4766d;"/><path d="M51.2,68.292l2.928,4.725l1.98,-3.961l-4.908,-0.764Z" style="fill:#a5776d;"/><path d="M49.296,73.794l7.219,3.432l-4.694,6.35l-2.525,-9.782Z" style="fill:#8f635a;"/><path d="M51.821,83.576l4.694,-6.356l-1.037,3.726l-3.657,2.63Z" style="fill:#a4766d;"/><path d="M56.515,77.22l2.316,3.68l-3.357,0" style="fill:#794f47;"/><path d="M59.526,73.794l-3.011,3.426l2.247,3.668l0.764,-7.094Z" style="fill:#9c6f66;"/><path d="M46.091,85.731l-0.629,3.57l4.668,-0.639l-4.039,-2.931Z" style="fill:#82574e;"/><path d="M49.572,84.731l0.558,3.931l-4.066,-2.931l3.508,-1Z" style="fill:#8e6259;"/><path d="M56.515,77.22l-2.347,-4.203l-4.872,0.777l7.219,3.426Z" style="fill:#ac7e75;"/><path d="M54.168,73.017l5.365,0.777l-3.018,3.426l-2.347,-4.203Z" style="fill:#ca9a90;"/><path d="M53.975,73.017l2.133,-4.051l4.781,-0.628l-1.356,5.456l-5.558,-0.777Z" style="fill:#885d54;"/><path d="M60.889,68.338l2.038,2.728l-3.401,2.728l1.363,-5.456Z" style="fill:#83584f;"/><path d="M34.653,83.872l0.866,0.864l-0.866,0l0,-0.864Z" style="fill:#694038;"/><path d="M34.653,84.736l0.866,0l0.757,4.063l-1.623,-4.063Z" style="fill:#7f544b;"/><path d="M36.276,88.799l3.659,2.504l1.482,-2.007l-5.141,-0.497Z" style="fill:#895d54;"/><path d="M35.519,84.736l3.327,1.63l-2.57,2.433l-0.757,-4.063Z" style="fill:#8f635a;"/><path d="M38.846,86.366l2.571,2.93l-5.141,-0.497l2.57,-2.433Z" style="fill:#895d54;"/><path d="M38.846,86.366l-3.327,-1.63l3.327,0.469l0,1.161Z" style="fill:#8c6057;"/><path d="M38.846,86.366l3.029,0l-3.029,-1.215l0,1.215Z" style="fill:#8c6057;"/><path d="M38.846,85.151l7.046,-0.421l-4.017,1.636l-3.029,-1.215Z" style="fill:#8c6057;"/><path d="M41.875,86.366l4.017,-1.635l0.186,1.028l-4.203,0.607Z" style="fill:#7f554c;"/><path d="M46.078,85.759l3.486,-1.023l-3.672,-0.006l0.186,1.029Z" style="fill:#8c6057;"/><path d="M49.564,84.736l-0.268,-1.933l-1.244,0.681l1.512,1.252Z" style="fill:#8c6057;"/><path d="M51.796,83.484l-2.232,1.252l-0.268,-1.933l2.5,0.681Z" style="fill:#855a52;"/><path d="M49.564,84.736l0.542,3.958l1.69,-5.302l-2.232,1.344Z" style="fill:#764c43;"/><path d="M41.826,86.366l3.633,2.93l0.651,-3.564l-4.284,0.634Z" style="fill:#996c63;"/><path d="M45.892,84.736l2.16,-1.301l1.512,1.301l-3.672,0Z" style="fill:#8c6057;"/><path d="M41.875,86.366l-0.458,2.93l4.042,0l-3.584,-2.93Z" style="fill:#895d54;"/><path d="M54.664,64.334l6.225,4.004l-4.781,0.73l-2.439,-0.397l0.995,-4.337Z" style="fill:#90645b;"/><path d="M62.927,71.066l-2.038,-2.728l3.241,-7.698l-1.203,10.426Z" style="fill:#895d54;"/><path d="M28.215,66.678l2.355,-1.881l4.903,2.651l-3.836,0l-3.422,-0.77Z" style="fill:#c29389;"/><path d="M35.473,67.448l5.277,0l-6.029,-1.941l-1.906,-0.71l2.658,2.651Z" style="fill:#c9998f;"/><path d="M32.815,64.797l-2.245,0l4.903,2.651l-2.658,-2.651Z" style="fill:#b6887e;"/><path d="M32.815,64.797l2.658,0.545l5.277,2.106l-7.935,-2.651Z" style="fill:#dfaea3;"/><path d="M35.473,65.342l3.507,-0.545l1.77,2.651l-5.277,-2.106Z" style="fill:#c8988e;"/><path d="M38.969,64.797l2.849,0l2.85,2.651l-5.699,-2.651Z" style="fill:#c8988e;"/><path d="M38.969,64.797l1.781,2.651l3.918,0l-5.699,-2.651Z" style="fill:#dfaea3;"/><path d="M48.339,65.351l5.998,-1.101l-3.185,1.101l-2.813,0Z" style="fill:#a4776d;"/><path d="M41.818,64.797l9.334,0.554l-1.592,0.772l-7.742,-1.326Z" style="fill:#ac7e74;"/><path d="M41.818,64.797l7.742,1.325l-2.69,0.892l-5.052,-2.217Z" style="fill:#c19288;"/><path d="M41.818,64.797l5.052,2.217l-2.202,0.434l-2.85,-2.651Z" style="fill:#b2847a;"/><path d="M24.47,60.748l3.762,5.947l2.221,-4.843l-5.983,-1.104Z" style="fill:#8f635a;"/><path d="M80.452,56.931l2.942,2.131l0,-2.365l-2.942,0.234Z" style="fill:#784e45;"/><path d="M83.037,54.242l0.357,2.455l1.206,-5.997l-1.563,3.542Z" style="fill:#6c433b;"/><path d="M84.6,50.7l0.843,-2.134l-2.698,0.705l1.855,1.429Z" style="fill:#784e45;"/><path d="M82.745,49.271l2.113,-2.177l0.585,1.472l-2.698,0.705Z" style="fill:#5d362e;"/><path d="M82.745,49.271l2.023,-6.106l0.123,3.929l-2.146,2.177Z" style="fill:#8f635a;"/><path d="M82.745,49.271l0.284,4.984l1.571,-3.555l-1.855,-1.429Z" style="fill:#8f635a;"/><path d="M43.388,67.448l3.841,-0.423l1.14,3.031l-2.91,0.618l-2.071,-3.226Z" style="fill:#f5f6f6;"/><path d="M48.215,70.167l2.65,-1.756l-3.744,-1.397l1.094,3.153Z" style="fill:#fff;"/><path d="M46.87,67.067l7.76,-2.742l-2.526,2.742l-1.239,1.344l-3.995,-1.344Z" style="fill:#f5f6f6;"/><path d="M32.217,77.025l3.849,0l0.824,5.51l-1.392,0l-1.661,-1.078l-1.62,-4.432Z" style="fill:#e5e5e5;"/><path d="M36.066,77.025l2.965,0l-2.141,5.51l-0.824,-5.51Z" style="fill:#f1f1f1;"/><path d="M36.89,82.535l5.719,0l-3.578,-5.51l-2.141,5.51Z" style="fill:#f1f1f1;"/><path d="M42.609,82.535l1.923,-0.488l-1.36,-2.932l-0.563,3.42Z" style="fill:#f1f1f1;"/><path d="M43.172,79.115l-0.93,-2.09l0.367,5.51l0.563,-3.42Z" style="fill:#f1f1f1;"/><path d="M42.242,77.025l-3.211,0l3.578,5.51l-0.367,-5.51Z" style="fill:#f1f1f1;"/><path d="M45.224,77.025l-2.052,2.09l-0.93,-2.09l2.982,0Z" style="fill:#f1f1f1;"/><path d="M44.532,82.012l2.303,-0.559l-3.663,-2.338l1.36,2.897Z" style="fill:#f1f1f1;"/><path d="M43.172,79.115l3.663,0l0,2.303l-3.663,-2.303Z" style="fill:#f1f1f1;"/><path d="M45.224,77.025l1.95,0l-0.339,2.09l-3.663,0l2.052,-2.09Z" style="fill:#f1f1f1;"/><path d="M47.174,77.025l2.008,-0.402l0,3.157l-2.347,1.638l0,-2.303l0.339,-2.09Z" style="fill:#e7e7e7;"/><path d="M55.474,80.888l3.357,0.012l-1.302,6.62l-2.451,-1.159l0.396,-5.473Z" style="fill:#70473f;"/><path d="M49.296,79.686l0,3.153l-2.425,1.462l2.425,-4.615Z" style="fill:#956960;"/><path d="M44.58,75.314l0.076,1.464l0.726,0l-0.802,-1.464Z" style="fill:#edcfbe;"/><path d="M33.869,70.734l0.456,1.687l-2.074,1.065l1.618,-2.752Z" style="fill:#f1d3c2;"/><path d="M34.325,72.421l-1.206,1.065l-0.868,0l2.074,-1.065Z" style="fill:#f9ddcb;"/><path d="M33.119,73.486l-0.868,0.719l1.623,1.082l-0.755,-1.801Z" style="fill:#f7dbc9;"/><path d="M33.874,75.287l1.753,-2.866l-2.506,1.065l0.753,1.801Z" style="fill:#eed1c0;"/><path d="M34.325,72.421l1.302,0l-2.506,1.065l1.204,-1.065Z" style="fill:#fadecd;"/><path d="M33.862,70.809l1.778,1.622l-1.297,0l-0.481,-1.622Z" style="fill:#fce3d1;"/><path d="M35.64,72.431l0.553,-1.622l-2.331,0l1.778,1.622Z" style="fill:#f3d7c6;"/><path d="M37.245,73.825l-1.052,-3.016l-0.553,1.622l1.605,1.394Z" style="fill:#fae0ce;"/><path d="M36.193,70.809l2.774,0l-1.722,3.016l-1.052,-3.016Z" style="fill:#f4d8c7;"/><path d="M38.967,70.809l1.193,1.622l-1.857,-0.471l0.664,-1.151Z" style="fill:#eed1bf;"/><path d="M38.303,71.96l-1.058,1.865l1.722,-0.373l-0.664,-1.492Z" style="fill:#fde5d3;"/><path d="M38.967,73.452l1.193,-1.021l-1.857,-0.471l0.664,1.492Z" style="fill:#f9ddcc;"/><path d="M40.16,72.431l0.313,1.394l-1.506,-0.373l1.193,-1.021Z" style="fill:#eed1c0;"/><path d="M40.473,73.825l2.118,-0.373l-2.431,-1.021l0.313,1.394Z" style="fill:#f2d4c3;"/><path d="M42.591,73.452l0,-2.017l1.973,1.12l-1.973,0.897Z" style="fill:#edd0be;"/><path d="M40.16,72.444l2.431,-1.009l0,2.017l-2.431,-1.008Z" style="fill:#f7dac9;"/><path d="M38.967,70.798l1.193,1.646l2.431,-1.009l-3.624,-0.637Z" style="fill:#fee5d4;"/><path d="M43.824,70.798l-1.233,0.637l-3.624,-0.637l4.857,0Z" style="fill:#fbe0cf;"/><path d="M42.591,71.435l1.233,-0.637l0.74,1.76l-1.973,-1.123Z" style="fill:#ffecda;"/><path d="M28.218,66.412l-0.485,1.529l0,-0.643l0.485,-0.886Z" style="fill:#896f60;"/><path d="M27.733,67.941l1.21,1.423l-1.21,-1.797l0,0.374Z" style="fill:#957b6c;"/><path d="M28.943,69.364l1.521,3.967l-1.32,-2.533l-0.201,-1.434Z" style="fill:#ac9181;"/><path d="M30.464,73.331l3.28,8.116l-3.28,-7.525l0,-0.591Z" style="fill:#aa8f7f;"/><path d="M33.837,81.507l-0.093,1.704l0.979,0.665l-0.886,-2.369Z" style="fill:#a2746c;"/><path d="M27.733,67.176l-0.333,-1.834l0.938,1.07l-0.605,0.764Z" style="fill:#a3756d;"/><path d="M27.4,65.342c0,0.472 -0.635,2.599 -0.635,2.599" style="fill:none;"/><path d="M43.824,70.798l1.733,0.12l-0.993,1.64l-0.74,-1.76Z" style="fill:#fadfcd;"/><path d="M81.862,39.005l1.172,0.821l-0.907,1.066l-0.265,-1.887Z" style="fill:#5e362f;"/><path d="M83.498,38.398l-0.464,1.428l-1.172,-0.822l1.636,-0.606Z" style="fill:#6d443c;"/><path d="M82.906,35.655l-1.044,3.349l1.636,-0.606l-0.592,-2.743Z" style="fill:#613932;"/><path d="M83.498,38.398l0.064,-2.991l-0.661,0.248l0.597,2.743Z" style="fill:#6b423a;"/><path d="M84.309,36.045l-0.747,-0.638l-0.064,2.991l0.811,-2.353Z" style="fill:#734a41;"/><path d="M83.498,38.398l1.609,0.911l-0.798,-3.264l-0.811,2.353Z" style="fill:#694139;"/><path d="M83.664,39.309l1.443,0l-1.609,-0.911l0.166,0.911Z" style="fill:#754b43;"/><path d="M83.677,39.309l0.439,0.533l0.991,-0.533l-1.43,0Z" style="fill:#7f544b;"/><path d="M84.116,39.842l0.991,-0.533l0,1.087l-0.991,-0.554Z" style="fill:#8b6057;"/><path d="M86.318,40.766l-1.211,-1.457l0,1.087l1.211,0.37Z" style="fill:#81564e;"/><path d="M86.318,40.766l-1.211,-1.457l1.95,1.457l-0.739,0Z" style="fill:#764c43;"/><path d="M45.803,60.656l-1.917,0.6l1.224,1.263l0.693,-1.863Z" style="fill:#90645b;"/><path d="M40.823,60.656l-3.407,-0.046l1.696,1.885l1.711,-1.839Z" style="fill:#986c63;"/><path d="M37.416,60.61l-0.421,2.811l2.124,-0.936l-1.703,-1.875Z" style="fill:#8c6057;"/><path d="M32.1,61.213l4.008,0.335l-1.543,2.276l-2.465,-2.611Z" style="fill:#90645b;"/><path d="M36.108,61.548l1.308,-0.938l-0.421,2.811l-0.887,-1.873Z" style="fill:#9a6d64;"/><path d="M30.418,61.802l0.152,2.995l-2.355,1.881l2.203,-4.876Z" style="fill:#93675e;"/><path d="M32.815,64.797l-2.245,0l-0.152,-2.995l2.397,2.995Z" style="fill:#9b6e65;"/><path d="M33.265,62.439l-2.847,-0.637l2.397,2.995l0.45,-2.358Z" style="fill:#8f635a;"/><path d="M34.569,63.824l-1.754,0.973l0.446,-2.358l1.308,1.385Z" style="fill:#845950;"/><path d="M32.815,64.797l2.658,0.555l-0.911,-1.53l-1.747,0.975Z" style="fill:#8f635a;"/><path d="M35.473,65.352l0.607,-3.866l-1.518,2.336l0.911,1.53Z" style="fill:#855a51;"/><path d="M36.08,61.486l0.912,1.933l-1.519,1.933l0.607,-3.866Z" style="fill:#7b5149;"/><path d="M36.992,63.419l2.123,1.378l-3.642,0.555l1.519,-1.933Z" style="fill:#865a52;"/><path d="M39.115,64.797l0,-2.312l-2.123,0.934l2.123,1.378Z" style="fill:#835850;"/><path d="M40.823,62.485l-1.708,0l0,2.312l1.708,-2.312Z" style="fill:#93675e;"/><path d="M39.115,62.485l1.708,-1.83l0,1.83l-1.708,0Z" style="fill:#966960;"/><path d="M40.823,62.485l1.673,2.312l-3.381,0l1.708,-2.312Z" style="fill:#9d7067;"/><path d="M42.496,64.797l1.389,-3.541l-3.062,1.229l1.673,2.312Z" style="fill:#8a5f56;"/><path d="M43.885,61.256l1.216,1.229l-2.605,2.312l1.389,-3.541Z" style="fill:#9b6e65;"/><path d="M45.101,62.485l3.988,2.807l-6.593,-0.495l2.605,-2.312Z" style="fill:#a3766c;"/><path d="M49.089,65.292l-3.297,-4.637l-0.691,1.83l3.988,2.807Z" style="fill:#ae8076;"/><path d="M49.959,61.256l-4.167,-0.601l3.297,4.637l0.87,-4.036Z" style="fill:#a2756c;"/><path d="M54.337,64.25l-5.248,1.042l0.87,-4.036l4.378,2.994Z" style="fill:#aa7c72;"/><path d="M83.013,40.741l0.477,-0.931l0.905,0.58l-1.382,0.351Z" style="fill:#6d443c;"/><path d="M84.395,40.39l1.334,0.566l-1.275,2.068l-0.059,-2.634Z" style="fill:#4a251e;"/><path d="M83.013,40.741l1.441,2.283l-0.059,-2.634l-1.382,0.351Z" style="fill:#562f28;"/><path d="M84.454,43.024l-2.068,6.221l0.627,-8.504l1.441,2.283Z" style="fill:#5a332b;"/><path d="M83.013,40.741l-2.628,2.019l2.001,6.485l0.627,-8.504Z" style="fill:#784e46;"/><path d="M80.385,42.757l-0.38,7.491l2.381,-1.003l-2.001,-6.488Z" style="fill:#70473f;"/><path d="M80.005,50.248l2.588,1.811l-0.207,-2.814l-2.381,1.003Z" style="fill:#613932;"/><path d="M31.19,55.946l-0.041,0.305l1.229,-0.735l-1.188,0.43Z" style="fill:#320e06;"/><path d="M28.76,57.691l0.178,0.354l2.252,-1.794l0,-0.305l-2.43,1.745Z" style="fill:#3b1711;"/><path d="M28.76,59.64l0.17,-0.693l0,-0.902l-0.17,-0.354l0,1.949Z" style="fill:#411c16;"/><path d="M28.93,58.947l0.535,0.287l-0.705,0.406l0.17,-0.693Z" style="fill:#3e1914;"/><path d="M29.465,59.234l0.939,0" style="fill:none;"/><g id="Intrieur-nez" serif:id="Intrieur nez"><path d="M41.742,54.92l2.542,2.384l-1.266,0.951l-1.276,-3.335Z" style="fill:#956960;"/><path d="M44.284,57.304l1.794,-3.266l-4.337,0.882l2.543,2.384Z" style="fill:#956960;"/><path d="M46.078,54.038l2.459,0.882l-4.253,2.384l1.794,-3.266Z" style="fill:#956960;"/><path d="M45.322,58.148l3.215,-3.228l-4.253,2.384l1.038,0.844Z" style="fill:#956960;"/><path d="M48.144,57.304l0.393,-2.384l-3.212,3.228l2.819,-0.844Z" style="fill:#956960;"/><path d="M45.325,58.148l1.399,0.51l1.43,-1.354l-2.829,0.844Z" style="fill:#956960;"/><path d="M45.325,59.648l1.399,-0.99l-1.399,-0.51l0,1.5Z" style="fill:#956960;"/><path d="M28.914,58.923l2.235,-2.653l-1.696,2.964l-0.539,-0.311Z" style="fill:#956960;"/><path d="M31.149,56.27l-0.783,2.964l-0.913,0l1.696,-2.964Z" style="fill:#8c6158;"/><path d="M39.516,41.904l-1.161,3.499l-1.171,-4.132l2.332,0.633Z" style="fill:#956960;"/><path d="M37.933,40.127l0.187,1.144l1.396,0.633l-1.583,-1.777Z" style="fill:#9d7066;"/><path d="M39.76,41.822l-1.827,-1.695l1.583,1.777l0.244,-0.082Z" style="fill:#ab7d73;"/><g id="Contour-extrieur-nez" serif:id="Contour extrieur nez"><path d="M39.368,45.512l0.392,-3.69l-0.244,0.082l-0.148,3.608Z" style="fill:#b98a80;"/><path d="M37.219,48.47l2.149,-2.895l0.148,-3.671l-2.297,6.566Z" style="fill:#b5867d;"/><path d="M38.001,48.432l1.367,-2.857l-2.149,2.895l0.782,-0.038Z" style="fill:#a87a71;"/><path d="M37.219,48.47l0.782,-0.038l0.938,2.925l-1.72,-2.887Z" style="fill:#b98a81;"/><path d="M38.001,48.432l1.357,2.9l-0.419,0.025l-0.938,-2.925Z" style="fill:#c09087;"/><path d="M38.939,51.357l-0.294,2.084l0.713,-2.109l-0.419,0.025Z" style="fill:#ac7e74;"/><path d="M38.939,51.357l-0.294,2.084l-0.867,1.089l1.161,-3.173Z" style="fill:#a3766c;"/><path d="M37.778,54.524l0.867,-1.083l-0.115,1.875l-0.752,-0.792Z" style="fill:#ae8076;"/><path d="M38.645,53.441l2.687,0.517l0.409,0.962l-3.211,0.396l0.115,-1.875Z" style="fill:#aa7c73;"/><path d="M41.332,53.958l2.329,0.08l-1.92,0.882" style="fill:#a07269;"/></g><path d="M37.184,41.271l-1.762,12.041l2.933,-7.909l-1.171,-4.132Z" style="fill:#956960;"/><path d="M37.195,48.421l1.746,2.94l-3.519,1.951l1.773,-4.891Z" style="fill:#956960;"/><path d="M38.941,51.361l-1.16,3.163l-2.359,-1.212l3.519,-1.951Z" style="fill:#956960;"/><path d="M37.781,54.524l0.749,0.792l-0.99,0l0.241,-0.792Z" style="fill:#956960;"/><path d="M38.53,55.316l3.212,-0.396l-1.178,1.805l-2.034,-1.409Z" style="fill:#956960;"/><path d="M37.54,55.316l0.815,2.232l0.175,-2.232l-0.99,0Z" style="fill:#956960;"/><path d="M38.53,55.316l2.079,1.409l-2.233,0.823l0.154,-2.232Z" style="fill:#956960;"/><path d="M40.609,56.725l-2.233,0.823l0.782,1.155l1.451,-1.978Z" style="fill:#956960;"/><path d="M39.158,58.703l3.904,-0.493l-2.453,-1.485l-1.451,1.978Z" style="fill:#956960;"/><path d="M40.494,56.725l1.248,-1.805l1.276,3.335l-2.524,-1.53Z" style="fill:#956960;"/><path d="M35.42,53.312l-0.615,1.353l2.978,-0.141l-2.363,-1.212Z" style="fill:#956960;"/><path d="M34.803,54.666l0,1.616l2.98,-1.758l-2.98,0.142Z" style="fill:#956960;"/><path d="M34.803,56.282l2.775,-1.011l0.205,-0.747l-2.98,1.758Z" style="fill:#956960;"/><path d="M38.338,57.521l-0.76,-2.25l-2.775,1.011l3.535,1.239Z" style="fill:#956960;"/><path d="M31.204,58.034l2.663,-1.752l-1.491,3.381l-1.172,-1.629Z" style="fill:#956960;"/><path d="M32.376,59.663l-0.071,0.863l-1.156,-2.583l1.227,1.72Z" style="fill:#956960;"/><path d="M33.867,56.282l0.936,3.381l-2.427,0l1.491,-3.381Z" style="fill:#956960;"/><path d="M34.803,56.282l0,3.381l-0.936,-3.381l0.936,0Z" style="fill:#956960;"/><path d="M37.668,58.17l-2.865,1.493l0,-3.381l2.865,1.888Z" style="fill:#956960;"/><path d="M34.803,56.282l3.535,1.239l-0.67,0.626l-2.865,-1.865Z" style="fill:#956960;"/><path d="M37.668,58.147l0.67,-0.626l0.835,1.221l-1.505,-0.595Z" style="fill:#956960;"/><path d="M32.376,55.512l1.491,0.77l-2.677,1.763l1.186,-2.533Z" style="fill:#956960;"/><path d="M34.803,54.565l-0.936,1.717l-1.533,-0.77l2.469,-0.947Z" style="fill:#8a5e56;"/><path d="M37.184,41.271l-1.763,12.041l0,-5.984l1.763,-6.057Z" style="fill:#845950;"/><path d="M34.805,54.528l-0.938,1.742l0.938,0l0,-1.742Z" style="fill:#956960;"/><path d="M32.378,55.516l-1.229,0.754l0,1.878l0.931,-1.994l0.298,-0.638Z" style="fill:#875b53;"/><path d="M31.149,57.943l1.156,2.583l-1.156,-0.909l0,-1.674Z" style="fill:#8c6158;"/><path d="M32.305,60.526l2.5,-0.909l-2.5,0l0,0.909Z" style="fill:#956960;"/><path d="M32.305,60.526l3.697,0l-1.197,-0.909l-2.5,0.909Z" style="fill:#865b52;"/><path d="M36.002,60.526l1.663,-2.378l-2.86,1.469l1.197,0.909Z" style="fill:#8d6259;"/><path d="M37.665,58.148l2.747,1.086l-3.637,0.103l0.89,-1.189Z" style="fill:#7c5249;"/><path d="M40.412,59.234l2.682,-1.086l-4.02,0.594l1.338,0.492Z" style="fill:#885d54;"/><path d="M43.018,58.148l2.304,0l-1.015,-0.844l-1.289,0.844Z" style="fill:#81564d;"/><path d="M45.322,58.148l0,1.469l-1.114,0l1.114,-1.469Z" style="fill:#956960;"/><path d="M44.208,59.617l-1.114,0l1.114,0.762l0,-0.762Z" style="fill:#956960;"/><path d="M44.208,59.617l1.114,0l-1.114,0.762l0,-0.762Z" style="fill:#956960;"/><path d="M46.689,58.691l2.455,-1.387l-0.995,0l-1.46,1.387Z" style="fill:#764c44;"/><path d="M49.144,57.304l-0.614,-2.39l-0.411,2.39l1.025,0Z" style="fill:#83584f;"/><path d="M41.741,54.92l1.91,-0.399l2.401,-0.483l-2.401,0l-1.91,0.882Z" style="fill:#83584f;"/><path d="M43.655,54.038l2.397,-0.726l1.864,0.726l-1.864,0l-2.397,0Z" style="fill:#7c5149;"/><path d="M31.149,56.27l-2.235,1.728l0,0.925l2.235,-2.653Z" style="fill:#956960;"/><path d="M48.53,54.914l-2.478,-0.876l1.864,0l0.614,0.876Z" style="fill:#83584f;"/><path d="M35.421,47.328l-0.616,2.917l0.616,3.067l0,-5.984Z" style="fill:#7a4f47;"/><path d="M34.805,50.245l0,4.42l0.616,-1.353l-0.264,-1.316l-0.352,-1.751Z" style="fill:#855a51;"/><path d="M31.149,56.27l-0.61,1.989l0.61,1.358l0,-1.469l0,-1.878Z" style="fill:#81564e;"/></g><g id="Contour-nez" serif:id="Contour nez"><path d="M36.292,42.915l0.892,-1.644l-2.702,8.593l1.81,-6.949Z" style="fill:#421d17;"/><path d="M36.292,42.915l0.892,-1.644l0,-1.23l-0.892,2.874Z" style="fill:#2f0b02;"/><path d="M37.184,41.271l-2.379,8.974l-0.324,-0.37l2.703,-8.604Z" style="fill:#411d17;"/><path d="M34.481,49.875l-0.438,2.001l0.775,-1.631l-0.337,-0.37Z" style="fill:#411d17;"/><path d="M34.043,51.876l0,2.387l0.775,-4.018l-0.775,1.631Z" style="fill:#39150e;"/><path d="M34.043,54.263l0.76,0.402l0.015,-4.42l-0.775,4.018Z" style="fill:#3a1710;"/><path d="M32.722,55.168l2.083,-0.503l-0.762,-0.402l-1.321,0.905Z" style="fill:#3f1b15;"/><path d="M32.378,55.516l2.425,-0.851l-2.081,0.503l-0.344,0.348Z" style="fill:#411d17;"/><path d="M31.19,55.946l1.532,-0.778l-0.344,0.348l-1.188,0.43Z" style="fill:#2e0a02;"/><path d="M28.752,59.604l0.713,-0.37l0.905,0l-1.618,0.37Z" style="fill:#3e1914;"/><path d="M30.37,59.234l0.09,0.076l-1.7,0.294l1.61,-0.37Z" style="fill:#3e1914;"/><path d="M30.6,58.388l0.549,1.229l-0.689,-0.297l-0.09,-0.086l0.23,-0.846Z" style="fill:#3c1812;"/><path d="M30.46,59.32l0.689,0.297l1.012,1.613l-1.701,-1.91Z" style="fill:#3c1811;"/><path d="M32.161,61.23l0.15,-0.693l-1.162,-0.92l1.012,1.613Z" style="fill:#3b1811;"/><path d="M32.311,60.537l3.707,0l0.083,1.009l-3.94,-0.316l0.15,-0.693Z" style="fill:#3b1711;"/><path d="M36.101,61.546l1.329,-0.922l-0.607,-1.304l-0.811,1.217l0.089,1.009Z" style="fill:#3d1913;"/><path d="M36.823,59.32l3.599,-0.093l-2.992,1.398l-0.607,-1.305Z" style="fill:#3d1913;"/><path d="M37.43,60.625l2.992,-1.398l0.411,1.398l-3.403,0Z" style="fill:#3c1812;"/><path d="M40.833,60.625l1.23,-0.699l-1.641,-0.699l0.411,1.398Z" style="fill:#3d1913;"/><path d="M42.063,59.926l0.939,-1.738l-2.58,1.039l1.641,0.699Z" style="fill:#3b1811;"/><path d="M43.002,58.188l2.342,0l-1.122,1.432l-1.22,-1.432Z" style="fill:#3c1812;"/><path d="M44.222,59.62l-1.993,0l0.773,-1.432l1.22,1.432Z" style="fill:#3c1812;"/><path d="M42.229,59.62l-0.166,0.306l1.049,-0.306l-0.883,0Z" style="fill:#3c1812;"/><path d="M43.112,59.62l1.11,0.759l-0.331,0.893l-1.828,-1.346l1.049,-0.306Z" style="fill:#3b1811;"/><path d="M44.222,60.379l1.122,-0.759l0.485,1.035l-1.932,0.617l0.325,-0.893Z" style="fill:#3b1711;"/><path d="M45.344,59.62l1.381,-0.973l-0.896,2.019l-0.485,-1.046Z" style="fill:#3c1912;"/><path d="M45.829,60.666l3.328,-3.366l-2.432,1.347l-0.896,2.019Z" style="fill:#3c1912;"/><path d="M49.157,57.3l0.112,1.28l-3.44,2.086l3.328,-3.366Z" style="fill:#3c1912;"/><path d="M50.125,57.232l-0.856,1.348l-0.112,-1.28l0.968,-0.068Z" style="fill:#3c1812;"/><path d="M49.157,57.3l-0.582,-2.371l0.694,-0.971l0.856,3.274l-0.968,0.068Z" style="fill:#3f1b15;"/><path d="M48.575,54.929l-0.671,-0.971l1.365,0l-0.694,0.971Z" style="fill:#3f1b15;"/><path d="M46.777,52.642l1.127,1.316l1.446,0l-2.573,-1.316Z" style="fill:#3f1b15;"/></g><path d="M37.184,41.271l0.749,-1.144l0.201,1.144l-0.95,0Z" style="fill:#966a61;"/><path d="M37.184,40.041l0.749,0.086l-0.749,1.144l0,-1.23Z" style="fill:#784e46;"/><path d="M25.954,62.808l8.612,23.008l2.143,0.854l-9.818,-23.862l-0.937,0Z" style="fill:#8e6259;"/><path d="M29.405,42.647l1.131,-1.159l0.723,1.159l-1.854,0Z" style="fill:#eeefef;"/><path d="M20.479,36.508l0.027,-1.191l1.017,2.382l-1.044,-1.191Z" style="fill:#8d645b;"/><path d="M25.175,38.784l0.718,-0.039l-0.394,1.179l-0.324,-1.14Z" style="fill:#ad8178;"/><path d="M25.082,40.507l0.417,-0.583l-0.324,-1.14l-0.093,1.723Z" style="fill:#a47970;"/><path d="M25.499,39.924l0.101,2.259l-0.518,-1.676l0.417,-0.583Z" style="fill:#ab7f76;"/><path d="M23.859,43.704l1.738,-1.057l5.839,0l-7.577,1.057Z" style="fill:#010001;"/><path d="M25.597,42.167l0,0.48l1.53,0l-1.53,-0.48Z" style="fill:#9f756c;"/><path d="M23.145,43.069l0.714,0.635l1.738,-1.057l-2.452,0.422Z" style="fill:#a77b72;"/><path d="M23.934,43.694l7.497,-1.047l2.599,1.096l-10.034,0l-0.062,-0.049Z" style="fill:#8b625a;"/><path d="M25.597,42.167l0,0.48l-2.452,0.422l2.452,-0.902Z" style="fill:#9d736a;"/><path d="M31.426,42.647l2.604,1.096l-0.85,-1.096l-1.754,0Z" style="fill:#9d7067;"/></g></svg>