<?xml version="1.0" encoding="UTF-8" standalone="no"?><!DOCTYPE svg PUBLIC "-//W3C//DTD SVG 1.1//EN" "http://www.w3.org/Graphics/SVG/1.1/DTD/svg11.dtd"><svg width="100%" height="100%" viewBox="0 0 50 50" version="1.1" xmlns="http://www.w3.org/2000/svg" xmlns:xlink="http://www.w3.org/1999/xlink" xml:space="preserve" xmlns:serif="http://www.serif.com/" style="fill-rule:evenodd;clip-rule:evenodd;stroke-linecap:round;stroke-linejoin:round;stroke-miterlimit:1.5;"><rect id="Plan-de-travail1" serif:id="Plan de travail1" x="0" y="0" width="50" height="50" style="fill:none;"/><g id="Plan-de-travail11" serif:id="Plan de travail1"><rect x="0" y="0" width="50" height="50" style="fill:#0ab147;"/><path d="M25,8.934l20.597,16.066l-20.597,16.066l-20.597,-16.066l20.597,-16.066Z" style="fill:#f0fe3d;"/><circle cx="25.336" cy="20.615" r="5.482" style="fill:#f0fe3d;"/><circle cx="25" cy="26.097" r="9.379" style="fill:#090ca8;"/><circle cx="25.448" cy="31.241" r="0.448" style="fill:#fefffe;"/><circle cx="26.995" cy="24.552" r="0.448" style="fill:#fefffe;"/><circle cx="28.535" cy="33.711" r="0.448" style="fill:#fefffe;"/><circle cx="23.023" cy="31.689" r="0.448" style="fill:#fefffe;"/><circle cx="29.43" cy="32.368" r="0.448" style="fill:#fefffe;"/><circle cx="17.324" cy="28.889" r="0.448" style="fill:#fefffe;"/><circle cx="19.406" cy="30.793" r="0.448" style="fill:#fefffe;"/><circle cx="21.466" cy="29.337" r="0.448" style="fill:#fefffe;"/><circle cx="23.47" cy="33.263" r="0.448" style="fill:#fefffe;"/><path d="M15.779,25.232c-0.101,0.021 -0.161,0.335 -0.101,0.4c0.083,0.089 0.475,-0.111 0.581,-0.124c0.701,-0.091 1.386,-0.261 2.083,-0.369c1.728,-0.267 3.932,-0.43 5.661,-0.089c2.434,0.48 4.637,1.799 6.845,2.831c0.597,0.279 1.42,0.714 1.845,1.233c0.155,0.188 0.381,0.362 0.47,0.581c0.048,0.119 0.273,0.426 0.236,0.303c-0.034,-0.114 -0.135,-0.23 -0.205,-0.326" style="fill:none;stroke:#fefffe;stroke-width:1px;"/></g></svg>