<?xml version="1.0" encoding="UTF-8" standalone="no"?><!DOCTYPE svg PUBLIC "-//W3C//DTD SVG 1.1//EN" "http://www.w3.org/Graphics/SVG/1.1/DTD/svg11.dtd"><svg width="100%" height="100%" viewBox="0 0 3000 3000" version="1.1" xmlns="http://www.w3.org/2000/svg" xmlns:xlink="http://www.w3.org/1999/xlink" xml:space="preserve" xmlns:serif="http://www.serif.com/" style="fill-rule:evenodd;clip-rule:evenodd;stroke-linejoin:round;stroke-miterlimit:2;"><g><g><path d="M2092.98,1430.74l-45.138,0l0,-37.782l45.138,0l0,-56.047l43.763,0l0,56.047l71.966,0l0,37.782l-71.966,0l0,113.783c0,28.459 7.923,43.386 44.377,43.386c13.961,0 29.622,-4.017 29.622,-4.017l0,39.382c-15.197,2.058 -26.265,3.293 -43.507,3.293c-68.905,0 -74.255,-49.655 -74.255,-76.864l0,-118.974l0,0.011Zm581.151,-38.033l44.79,0l0,234.413l-44.804,0l0.014,-234.413Zm123.957,115.486c0,63.846 52.568,79.753 77.537,79.753c47.574,0 81.149,-26.902 81.149,-80.667c0,-53.794 -38.179,-78.442 -81.626,-78.442c-24.639,0 -77.06,14.518 -77.06,79.367l0,-0.011Zm-45.566,-0.472c0,-88.154 71.231,-118.081 120.751,-118.081c56.183,0 83.478,32.223 83.478,32.223l2.313,-29.132l40.938,0l0,234.841l-41.01,0l-2.251,-31.016c0,0 -28.043,31.089 -83.98,31.089c-56.17,0 -120.249,-32.608 -120.249,-119.924l0.01,0Z" style="fill:#1a1d1d;fill-rule:nonzero;"/><path d="M2696.52,1309.31c16.19,0 29.304,13.12 29.304,29.302c0,16.189 -13.114,29.31 -29.304,29.31c-16.188,0 -29.302,-13.121 -29.302,-29.31c0.001,-16.182 13.115,-29.302 29.302,-29.302Z" style="fill:#1a1d1d;fill-rule:nonzero;"/><path d="M2641.42,1433.01l0,-39.676c-44.244,-4.065 -75.287,6.521 -99.483,31.82l-2.35,-32.346l-42.517,0l0,234.601l44.854,0l0,-121.558c0,-33.881 27.309,-76.893 99.496,-72.858l0,0.017Zm-421.925,75.606c0,-73.322 54.148,-120.412 126.553,-120.412c71.905,0 121.314,52.538 121.314,116.361c0,0 0,9.968 -0.93,19.018l-200.345,0.869c1.911,36.197 43.703,63.455 86.843,63.455c46.472,0 74.012,-28.715 74.012,-28.715l32.068,28.177c-32.536,31.226 -68.021,40.726 -106.043,40.726c-79.007,0 -133.473,-46.138 -133.473,-117.65l0,-1.801l0,-0.028l0.001,0Zm198.655,-20.135c0,-31.875 -32.094,-58.436 -71.5,-58.436c-42.173,0 -77.059,26.035 -79.864,58.436l151.376,0l-0.012,0Zm-466.203,-0.979c-45.1,-8.064 -89.453,-13.691 -89.453,-34.736c0,-13.701 13.594,-25.74 53.072,-25.74c29.34,0 63.198,6.772 72.357,27.559l41.586,-17.457c-15.919,-31.971 -62.978,-47.335 -117.076,-47.335c-47.268,0 -98.039,17.911 -98.039,65.771c0,41.446 37.753,54.337 99.947,66.057c41.584,7.839 79.913,11.793 79.913,34.201c0,14.156 -18.858,32.278 -66.002,32.278c-33.504,0 -67.301,-7.04 -77.611,-30.893l-40.348,16.936c16.52,36.832 60.405,55.913 111.249,55.913c101.49,0 121.107,-48.309 121.107,-75.701c0,-45.675 -45.43,-58.741 -90.725,-66.842l0.023,-0.011Z" style="fill:#1a1d1d;fill-rule:nonzero;"/></g><path d="M660.877,1428.82c-43.478,0 -81.634,24.649 -81.634,78.455c0,53.787 33.558,80.656 81.169,80.656c24.9,0 77.513,-10.117 77.513,-79.756c0,-69.65 -52.459,-79.373 -77.061,-79.373l0.013,0.018Zm2.326,198.808c-56.132,0 -83.948,-35.68 -83.948,-35.68l0,98.743l-43.257,0l0,-297.952l40.96,0l2.322,29.131c0,0 27.251,-32.224 83.457,-32.224c49.497,0 120.756,25.226 120.756,118.082c0,92.85 -64.153,119.899 -120.28,119.899l-0.01,0l0,0.001Zm334.345,-119.439c0,63.846 52.607,79.753 77.544,79.753c47.597,0 81.131,-26.902 81.131,-80.667c0,-53.794 -38.12,-78.442 -81.596,-78.442c-24.627,0 -77.067,14.518 -77.067,79.367l-0.012,-0.011Zm-45.514,-0.472c0,-88.154 71.224,-118.081 120.751,-118.081c56.175,0 83.441,32.223 83.441,32.223l2.313,-29.132l40.955,0l0,234.841l-40.851,0l-2.418,-31.016c0,0 -28.042,31.089 -83.966,31.089c-56.15,0 -120.248,-32.608 -120.248,-119.924l0.023,0Zm3.257,-74.708l0,-39.676c-44.237,-4.065 -75.31,6.521 -99.52,31.82l-2.295,-32.346l-42.509,0l0,234.601l44.804,0l0,-121.558c0,-33.881 27.357,-76.893 99.508,-72.858l0.012,0.017Zm-813.664,54.492c-45.118,-8.064 -89.44,-13.691 -89.44,-34.736c0,-13.701 13.537,-25.74 53.035,-25.74c29.346,0 63.197,6.772 72.383,27.559l41.59,-17.457c-15.924,-31.971 -62.995,-47.335 -117.07,-47.335c-47.268,0 -98.055,17.911 -98.055,65.771c0,41.446 37.746,54.337 99.989,66.057c41.531,7.839 79.901,11.793 79.901,34.201c0,14.156 -18.87,32.278 -65.996,32.278c-33.528,0 -67.33,-7.04 -77.652,-30.893l-40.312,16.936c16.5,36.832 60.399,55.913 111.218,55.913c101.507,0 121.13,-48.309 121.13,-75.701c0,-45.675 -45.418,-58.741 -90.731,-66.842l0.01,-0.011Zm239.536,-97.853c-59.941,0 -130.908,29.941 -130.908,118.082c0,87.303 63.872,121.224 130.908,121.224c67.086,0 130.883,-33.921 130.883,-121.224c0,-88.152 -70.913,-118.082 -130.87,-118.082l-0.013,0Zm0,198.283c-36.841,0 -85.344,-15.92 -85.344,-79.756c0,-64.85 53.793,-78.038 85.344,-78.038c31.563,0 85.343,13.187 85.343,78.038c-0.029,63.861 -48.527,79.756 -85.354,79.756l0.011,0Z" style="fill:#1a1d1d;fill-rule:nonzero;"/><path d="M1631.32,1619.91c-2.486,1.63 -5.474,3.515 -8.192,5.071l-0.857,0.502l0.832,0.087c53.549,14.717 106.534,14.168 116.747,-19.263c13.163,-43.14 -72.014,-89.402 -112.227,-111.474c-8.609,-4.715 -12.356,-1.783 -6.859,4.555c25.385,29.248 61.535,86.753 10.532,120.549l0.024,-0.027Z" style="fill:#ef7d00;fill-rule:nonzero;"/><path d="M1622.33,1625.43c0,0 -67.422,42.392 -186.434,42.392c-46.102,0 -84.916,-7.052 -101.318,-23.193c-17.304,-16.997 -26.659,-45.675 -26.659,-71.977c0,-22.581 9.369,-41.549 28.906,-41.549c50.156,0 206.461,79.496 285.516,94.349l-0.011,-0.022Z" style="fill:#cf022b;fill-rule:nonzero;"/><path d="M1397.61,1379.7c2.47,-1.63 5.482,-3.508 8.186,-5.065l0.827,-0.502l-0.827,-0.097c-53.542,-14.694 -106.582,-14.145 -116.766,19.275c-13.164,43.133 72.041,89.402 112.229,111.472c8.651,4.693 12.362,1.753 6.894,-4.553c-25.393,-29.267 -61.57,-86.771 -10.533,-120.556l-0.01,0.026Z" style="fill:#ef7d00;fill-rule:nonzero;"/><path d="M1406.58,1374.18c0,0 67.46,-42.386 186.461,-42.386c46.091,0 84.898,7.059 101.316,23.198c17.304,17.027 26.661,45.644 26.661,72.002c0,22.568 -9.369,41.543 -28.901,41.543c-50.156,0 -206.449,-79.502 -285.523,-94.357l-0.014,0Z" style="fill:#cf022b;fill-rule:nonzero;"/></g></svg>