<?xml version="1.0" encoding="UTF-8" standalone="no"?><!DOCTYPE svg PUBLIC "-//W3C//DTD SVG 1.1//EN" "http://www.w3.org/Graphics/SVG/1.1/DTD/svg11.dtd"><svg width="100%" height="100%" viewBox="0 0 100 100" version="1.1" xmlns="http://www.w3.org/2000/svg" xmlns:xlink="http://www.w3.org/1999/xlink" xml:space="preserve" xmlns:serif="http://www.serif.com/" style="fill-rule:evenodd;clip-rule:evenodd;stroke-linecap:round;stroke-linejoin:round;stroke-miterlimit:1.5;"><rect id="Plan-de-travail1" serif:id="Plan de travail1" x="0" y="0" width="100" height="100" style="fill:none;"/><g id="Plan-de-travail11" serif:id="Plan de travail1"><path d="M24.438,41.986c0.538,0.762 1.519,-2.036 1.565,-2.14c1.35,-3.033 2.689,-6.068 3.976,-9.129c3.11,-7.397 6.685,-14.769 11.503,-21.213c1.439,-1.925 3.2,-5.138 5.812,-5.586c3.399,-0.584 7.229,2.781 9.336,5.049c2.259,2.431 4.062,5.233 6,7.914c3.042,4.208 6.095,8.248 8.541,12.847c1.654,3.111 3.292,6.221 5.282,9.135c0.917,1.343 1.915,2.627 2.858,3.951c0.023,0.032 0.977,1.209 0.478,1.209" style="fill:none;stroke:#000;stroke-width:5px;"/><path d="M48.814,10.384c0,11.759 1.719,23.764 2.763,35.449c0.981,10.981 1.209,22.017 2.265,32.988c0.34,3.527 0.75,7.064 1.485,10.533c0.297,1.403 1.072,3.045 1.072,4.498" style="fill:none;stroke:#000;stroke-width:5px;"/></g></svg>