<?xml version="1.0" encoding="utf-8"?>
<!-- Generator: Adobe Illustrator 22.1.0, SVG Export Plug-In . SVG Version: 6.00 Build 0)  -->
<svg version="1.1" id="Calque_1" xmlns="http://www.w3.org/2000/svg" xmlns:xlink="http://www.w3.org/1999/xlink" x="0px" y="0px"
	 viewBox="0 0 614 159.7" style="enable-background:new 0 0 614 159.7;" xml:space="preserve">
<style type="text/css">
	.st0{fill:#313E47;}
	.st1{fill:#FBAC31;}
</style>
<path class="st0" d="M65.2,97.4l-13.9,36.5H48l-12.3-31.7l-12.4,31.7h-3.2L6.2,97.4h3.4L21.8,130l12.5-32.6h3l12.4,32.5L62,97.4
	H65.2z"/>
<path class="st0" d="M106.7,116.5H75.3c0.1,2.8,0.8,5.4,2.2,7.6c1.4,2.2,3.2,3.9,5.5,5.1c2.3,1.2,4.9,1.8,7.8,1.8
	c2.4,0,4.6-0.4,6.6-1.3c2-0.9,3.7-2.1,5.1-3.8l2,2.3c-1.6,1.9-3.6,3.4-6,4.4s-5,1.5-7.8,1.5c-3.6,0-6.9-0.8-9.7-2.4
	c-2.8-1.6-5.1-3.8-6.7-6.6c-1.6-2.8-2.4-6-2.4-9.6c0-3.5,0.8-6.7,2.3-9.6c1.5-2.8,3.6-5,6.3-6.6c2.7-1.6,5.6-2.4,9-2.4
	c3.3,0,6.3,0.8,8.9,2.3c2.6,1.6,4.7,3.7,6.2,6.5c1.5,2.8,2.3,6,2.3,9.5L106.7,116.5z M82.4,101.9c-2.1,1.1-3.7,2.8-4.9,4.8
	c-1.2,2.1-1.9,4.4-2.1,7h28c-0.1-2.6-0.8-4.9-2.1-7s-2.9-3.7-5-4.8c-2.1-1.2-4.4-1.8-6.9-1.8C86.8,100.2,84.4,100.8,82.4,101.9z"/>
<path class="st0" d="M126.1,132.1c-3.3-1.7-5.9-4-7.7-7s-2.8-6.4-2.8-10.2c0-3.8,0.9-7.2,2.8-10.1c1.8-3,4.4-5.3,7.7-6.9
	c3.3-1.7,7.1-2.5,11.3-2.5c4.3,0,8,0.9,11.1,2.8c3.1,1.8,5.3,4.4,6.6,7.7l-10.3,5.3c-1.7-3.4-4.2-5.1-7.6-5.1
	c-2.4,0-4.4,0.8-5.9,2.4c-1.6,1.6-2.3,3.8-2.3,6.6c0,2.8,0.8,5.1,2.3,6.7c1.6,1.6,3.5,2.4,5.9,2.4c3.3,0,5.8-1.7,7.6-5.1l10.3,5.3
	c-1.3,3.3-3.5,5.8-6.6,7.7c-3.1,1.8-6.8,2.8-11.1,2.8C133.1,134.6,129.4,133.8,126.1,132.1z"/>
<path class="st1" d="M171.3,132.1c-3.3-1.7-5.8-4-7.7-7c-1.8-3-2.8-6.4-2.8-10.2c0-3.7,0.9-7.1,2.8-10.1c1.8-3,4.4-5.3,7.6-7
	c3.2-1.7,6.9-2.5,11-2.5s7.8,0.8,11.1,2.5c3.3,1.7,5.8,4,7.6,6.9c1.8,3,2.7,6.3,2.7,10.1c0,3.8-0.9,7.2-2.7,10.2s-4.4,5.3-7.6,7
	c-3.3,1.7-7,2.5-11.1,2.5C178.2,134.6,174.6,133.8,171.3,132.1z M188,121.6c1.5-1.6,2.2-3.8,2.2-6.7c0-2.8-0.7-5-2.2-6.6
	s-3.4-2.4-5.7-2.4s-4.2,0.8-5.7,2.4c-1.5,1.6-2.2,3.8-2.2,6.6c0,2.8,0.7,5.1,2.2,6.7c1.5,1.6,3.4,2.4,5.7,2.4S186.5,123.2,188,121.6
	z"/>
<path class="st1" d="M221.4,132.1c-3.3-1.7-5.8-4-7.7-7c-1.8-3-2.8-6.4-2.8-10.2c0-3.7,0.9-7.1,2.8-10.1c1.8-3,4.4-5.3,7.6-7
	c3.2-1.7,6.9-2.5,11-2.5s7.8,0.8,11.1,2.5c3.3,1.7,5.8,4,7.6,6.9c1.8,3,2.7,6.3,2.7,10.1c0,3.8-0.9,7.2-2.7,10.2s-4.4,5.3-7.6,7
	c-3.3,1.7-7,2.5-11.1,2.5C228.3,134.6,224.7,133.8,221.4,132.1z M238.1,121.6c1.5-1.6,2.2-3.8,2.2-6.7c0-2.8-0.7-5-2.2-6.6
	s-3.4-2.4-5.7-2.4s-4.2,0.8-5.7,2.4c-1.5,1.6-2.2,3.8-2.2,6.6c0,2.8,0.7,5.1,2.2,6.7c1.5,1.6,3.4,2.4,5.7,2.4
	S236.6,123.2,238.1,121.6z"/>
<path class="st0" d="M280.7,120.7l-3.9,4v9.3h-13.3V82.1h13.3v27.2l13.6-13.2h15.8l-15.8,16.2l17.1,21.7h-16.1L280.7,120.7z"/>
<path class="st0" d="M390.4,97.4l-13.9,36.5h-3.3l-12.3-31.7l-12.4,31.7h-3.2l-13.9-36.5h3.4L347,130l12.5-32.6h3l12.4,32.5
	l12.3-32.5C387.2,97.4,390.4,97.4,390.4,97.4z"/>
<path class="st0" d="M431.8,116.5h-31.4c0.1,2.8,0.8,5.4,2.2,7.6c1.4,2.2,3.2,3.9,5.5,5.1c2.3,1.2,4.9,1.8,7.8,1.8
	c2.4,0,4.6-0.4,6.6-1.3c2-0.9,3.7-2.1,5.1-3.8l2,2.3c-1.6,1.9-3.6,3.4-6,4.4s-5,1.5-7.8,1.5c-3.6,0-6.9-0.8-9.7-2.4
	c-2.8-1.6-5.1-3.8-6.7-6.6c-1.6-2.8-2.4-6-2.4-9.6c0-3.5,0.8-6.7,2.3-9.6c1.5-2.8,3.6-5,6.3-6.6c2.7-1.6,5.6-2.4,9-2.4
	s6.3,0.8,8.9,2.3c2.6,1.6,4.7,3.7,6.2,6.5c1.5,2.8,2.3,6,2.3,9.5L431.8,116.5z M407.5,101.9c-2.1,1.1-3.7,2.8-4.9,4.8
	c-1.2,2.1-1.9,4.4-2.1,7h28c-0.1-2.6-0.8-4.9-2.1-7c-1.3-2.1-2.9-3.7-5-4.8c-2.1-1.2-4.4-1.8-6.9-1.8S409.6,100.8,407.5,101.9z"/>
<path class="st0" d="M451.2,132.1c-3.3-1.7-5.9-4-7.7-7c-1.8-3-2.8-6.4-2.8-10.2c0-3.8,0.9-7.2,2.8-10.1c1.8-3,4.4-5.3,7.7-6.9
	c3.3-1.7,7.1-2.5,11.3-2.5c4.3,0,8,0.9,11.1,2.8c3.1,1.8,5.3,4.4,6.7,7.7l-10.3,5.3c-1.7-3.4-4.2-5.1-7.6-5.1
	c-2.4,0-4.4,0.8-5.9,2.4c-1.6,1.6-2.3,3.8-2.3,6.6c0,2.8,0.8,5.1,2.3,6.7c1.6,1.6,3.5,2.4,5.9,2.4c3.3,0,5.8-1.7,7.6-5.1l10.3,5.3
	c-1.3,3.3-3.5,5.8-6.7,7.7c-3.1,1.8-6.8,2.8-11.1,2.8C458.3,134.6,454.5,133.8,451.2,132.1z"/>
<path class="st0" d="M519.4,99.7c3.3,2.9,5,7.3,5,13.2V134H512v-4.9c-1.9,3.7-5.6,5.5-11.2,5.5c-2.9,0-5.5-0.5-7.6-1.5
	s-3.8-2.4-4.9-4.2s-1.6-3.7-1.6-6c0-3.6,1.4-6.4,4.1-8.4c2.8-2,7-3,12.7-3h7.6c-0.2-4-2.9-6-8-6c-1.8,0-3.7,0.3-5.5,0.9
	c-1.9,0.6-3.5,1.4-4.8,2.4l-4.5-9c2.1-1.4,4.7-2.5,7.7-3.3c3-0.8,6-1.2,9.1-1.2C511.3,95.4,516.1,96.8,519.4,99.7z M508.5,125.1
	c1.2-0.7,2-1.8,2.5-3.3v-3.3h-5.7c-3.9,0-5.8,1.3-5.8,3.8c0,1.2,0.4,2.1,1.3,2.8c0.9,0.7,2.1,1,3.6,1S507.4,125.8,508.5,125.1z"/>
<path class="st0" d="M554.2,96.7c2.2-0.9,4.7-1.3,7.5-1.3v12c-1.2-0.1-2.2-0.2-3-0.2c-2.8,0-5.1,0.8-6.7,2.3s-2.4,3.9-2.4,7.1V134
	h-13.3V96.1H549v4.6C550.3,98.9,552,97.6,554.2,96.7z"/>
<path class="st0" d="M608.8,118.4h-27.6c0.6,2,1.6,3.5,3.3,4.5c1.6,1,3.6,1.6,6.1,1.6c1.8,0,3.4-0.3,4.7-0.8s2.7-1.4,4-2.5l7,7.3
	c-3.7,4.1-9.1,6.2-16.2,6.2c-4.4,0-8.3-0.8-11.7-2.5c-3.4-1.7-6-4-7.8-7c-1.8-3-2.8-6.4-2.8-10.2c0-3.7,0.9-7.1,2.7-10
	c1.8-3,4.3-5.3,7.5-7c3.2-1.7,6.7-2.5,10.7-2.5c3.8,0,7.2,0.8,10.3,2.3c3.1,1.6,5.5,3.8,7.3,6.8s2.7,6.5,2.7,10.5
	C609,115.2,609,116.3,608.8,118.4z M583.7,106.6c-1.4,1.2-2.3,2.8-2.6,4.8h15.5c-0.4-2-1.2-3.6-2.6-4.8c-1.4-1.2-3.1-1.8-5.1-1.8
	C586.8,104.9,585,105.4,583.7,106.6z"/>
<path class="st1" d="M230.8,138.7c-15.7,12.5-29.6,11.5-47.5,1.4c-1.9-1-1.8,3.4-1,4.3c6.2,7.2,17.6,12.4,29.5,10.9
	c9.3-1.2,15.5-5.6,20.5-11.9C234,141.2,231.9,137.9,230.8,138.7z"/>
<path class="st1" d="M232.9,88.8c2.4,1.2,5.2-0.5,5.4-3.1c0.5-2.9-1.2-14.2,1.7-15.3c1.2-0.4,2.8-0.9,4.9-2.1
	c10.9-5.7,15.6-14.2,15.9-22.3c0.1-3.7-0.7-7.3-2.2-10.5c-1.5-3.2-3.8-6.1-6.7-8.4c-5.8-4.7-14-6.9-23.3-4.4
	c-2.5-6.6-7.1-11.4-12.7-14.4c-4.6-2.5-9.8-3.7-15.1-3.7c-5.2,0-10.5,1.4-15.1,4c-5.5,3.2-10.1,8.3-12.5,15.2
	c-20.5-4.7-37.6,16.4-19,33.2c6.6,6,15.4,12.2,18.1,24.7c3.3-15.3-5.3-22.6-11.8-28.9c-7.3-7.1-7.2-15.9,1.1-20.8
	c6.7-3.8,17.6-1,23.3,3.2c0.3,0.1-10.3-11.6,4.5-20.2c3.4-2,7.4-3,11.4-3c17.5-0.2,21.1,11.4,25.6,25.1c2.1-14.5,20.7-10.6,25.2,1.5
	c1,2.2,1.6,4.6,1.5,7.1c-0.2,5.7-3.7,11.7-11.8,16c-12.3,6.5-29.2-8.5-50.2-0.1c14.6,1,41.9,5.5,39.6,18c-6.9-3-36.5-5-52.2,0.8
	C199.8,79.5,222.6,83.6,232.9,88.8L232.9,88.8z"/>
</svg>
