<?xml version="1.0" encoding="UTF-8" standalone="no"?><!DOCTYPE svg PUBLIC "-//W3C//DTD SVG 1.1//EN" "http://www.w3.org/Graphics/SVG/1.1/DTD/svg11.dtd"><svg width="100%" height="100%" viewBox="0 0 50 50" version="1.1" xmlns="http://www.w3.org/2000/svg" xmlns:xlink="http://www.w3.org/1999/xlink" xml:space="preserve" xmlns:serif="http://www.serif.com/" style="fill-rule:evenodd;clip-rule:evenodd;stroke-linejoin:round;stroke-miterlimit:2;"><rect id="Plan-de-travail1" serif:id="Plan de travail1" x="0" y="0" width="50" height="50" style="fill:none;"/><g id="Plan-de-travail11" serif:id="Plan de travail1"><rect x="0" y="0" width="50" height="50" style="fill:#fc0a08;"/><path d="M14.452,4.55l2.368,7.289l7.664,0l-6.2,4.504l2.368,7.289l-6.2,-4.505l-6.2,4.505l2.368,-7.289l-6.199,-4.504l7.663,0l2.368,-7.289Z" style="fill:#e6bf05;"/><path d="M41.818,3.13l-1.202,3.222l2.693,2.139l-3.436,-0.148l-1.202,3.222l-0.921,-3.313l-3.436,-0.148l2.867,-1.9l-0.921,-3.313l2.692,2.139l2.866,-1.9Z" style="fill:#e6bf05;"/><path d="M47.342,14.179l-2.11,2.715l1.931,2.846l-3.235,-1.168l-2.11,2.715l0.111,-3.437l-3.234,-1.168l3.303,-0.956l0.111,-3.437l1.93,2.846l3.303,-0.956Z" style="fill:#e6bf05;"/><path d="M43.144,25.741l-1.199,3.223l2.695,2.136l-3.436,-0.144l-1.199,3.222l-0.924,-3.312l-3.436,-0.144l2.864,-1.903l-0.924,-3.312l2.695,2.136l2.864,-1.902Z" style="fill:#e6bf05;"/><path d="M29.457,30.657l0.22,3.432l3.332,0.85l-3.196,1.27l0.221,3.432l-2.196,-2.647l-3.195,1.27l1.839,-2.906l-2.196,-2.646l3.332,0.851l1.839,-2.906Z" style="fill:#e6bf05;"/></g></svg>