<?xml version="1.0" encoding="UTF-8" standalone="no"?><!DOCTYPE svg PUBLIC "-//W3C//DTD SVG 1.1//EN" "http://www.w3.org/Graphics/SVG/1.1/DTD/svg11.dtd"><svg width="100%" height="100%" viewBox="0 0 600 600" version="1.1" xmlns="http://www.w3.org/2000/svg" xmlns:xlink="http://www.w3.org/1999/xlink" xml:space="preserve" xmlns:serif="http://www.serif.com/" style="fill-rule:evenodd;clip-rule:evenodd;stroke-linecap:round;stroke-linejoin:round;stroke-miterlimit:1.5;"><rect id="Plan-de-travail1" serif:id="Plan de travail1" x="0" y="0" width="600" height="600" style="fill:none;"/><g id="Plan-de-travail11" serif:id="Plan de travail1"><path d="M203.966,109.06c0,-1.859 -2.081,3.08 -3.065,4.656c-1.768,2.828 -3.754,5.454 -5.313,8.418c-5.833,11.085 -12.567,21.995 -17.071,33.71c-1.217,3.164 -6.594,18.867 -6.594,15.167" style="fill:none;stroke:#000;stroke-width:1px;"/><path d="M173.321,170.858c-2.139,-0.574 -0.394,11.232 -0.233,12.568c1.44,11.976 3.102,24.814 3.102,36.815" style="fill:none;stroke:#000;stroke-width:1px;"/><path d="M177.665,221.909c-2.14,0 -4.656,17.356 -4.656,20.017" style="fill:none;stroke:#000;stroke-width:1px;"/><path d="M173.94,242.858c-1.384,-0.203 1.752,3.555 2.25,4.42c1.932,3.355 3.989,6.567 6.324,9.66c5.155,6.825 10.284,13.695 15.477,20.482c2.192,2.865 6.286,5.085 7.333,8.651" style="fill:none;stroke:#000;stroke-width:1px;"/><path d="M209.591,287.545c-1.72,0 4.855,12.363 5.122,12.918c3.567,7.395 6.246,15.138 8.921,22.889c6.917,20.045 14.917,40.202 23.781,59.469c3.553,7.722 11.938,17.694 12.258,26.457" style="fill:none;stroke:#000;stroke-width:1px;"/><path d="M273.676,412.537c-0.569,0 2.955,1.073 7.838,2.017c5.527,1.068 11.224,1.228 16.835,1.278c11.669,0.104 22.991,-1.182 34.603,-1.744c7.144,-0.346 14.811,0.89 21.841,-0.466" style="fill:none;stroke:#000;stroke-width:1px;"/><path d="M359.602,411.838c0,-10.362 7.238,-22.602 11.367,-31.693c9.626,-21.198 21.667,-41.462 30.531,-62.844c3.241,-7.818 7.933,-14.93 11.986,-22.346c0.206,-0.378 3.007,-5.893 3.451,-5.662" style="fill:none;stroke:#000;stroke-width:1px;"/><path d="M414.341,282.813c-5.495,-12.733 -1.262,-49.718 3.335,-62.378c2.13,-5.865 11.986,-22.243 11.986,-27.969" style="fill:none;stroke:#000;stroke-width:1px;"/><path d="M429.352,180.557c-0.462,1.108 -4.738,-12.397 -5.468,-14.395c-4.99,-13.643 -10.494,-27.187 -16.992,-40.188c-2.05,-4.102 -6.516,-22.332 -7.06,-19.397" style="fill:none;stroke:#000;stroke-width:1px;"/><path d="M207.534,102.466c-0.191,0 -4.71,1.011 -3.645,1.395c1.917,0.69 9.528,-7.72 10.824,-8.767c11.32,-9.146 23.071,-17.771 34.486,-26.804c2.557,-2.024 14.527,-9.155 14.469,-9.08" style="fill:none;stroke:#000;stroke-width:1px;"/><path d="M268.71,60.491c-0.088,-0.088 5.176,2.099 6.83,2.64c5.02,1.641 10.226,2.033 15.477,2.21c17.129,0.578 33.453,2.651 50.469,3.957c4.64,0.357 9.279,0.35 13.929,0.35c0.723,0 11.296,0.285 8.221,1.085" style="fill:none;stroke:#000;stroke-width:1px;"/><path d="M369.185,71.509c0.499,3.794 6.098,8.54 7.758,12.258c5.987,13.408 9.993,27.48 16.449,40.733" style="fill:none;stroke:#000;stroke-width:1px;"/><path d="M195.122,147.776c-1.136,0 1.98,-1.116 2.949,-1.708c1.49,-0.909 2.994,-1.807 4.46,-2.753c4.005,-2.583 10.445,-5.432 13.5,-9.116" style="fill:none;stroke:#000;stroke-width:1px;"/><path d="M220.142,132.415c-0.87,1.096 13.623,5.37 15.517,5.934c9.566,2.85 19.212,5.469 28.514,9.117c1.449,0.568 9.437,3.203 8.767,5.585" style="fill:none;stroke:#000;stroke-width:1px;"/><path d="M195.588,151.267c0,-1.255 -0.898,2.518 -1.008,2.909c-0.604,2.128 -1.864,4.276 -1.864,6.517" style="fill:none;stroke:#000;stroke-width:1px;"/><path d="M198.187,159.219c0.332,-2.346 5.181,-3.063 7.06,-3.841c5.374,-2.226 13.315,-7.446 18.852,-7.446" style="fill:none;stroke:#000;stroke-width:1px;"/><path d="M227.668,150.452c0.244,-1.546 13.152,0.089 14.508,0.156c7.458,0.37 15.311,0.453 22.54,2.52c6.836,1.954 11.089,5.075 18.426,5.471" style="fill:none;stroke:#000;stroke-width:1px;"/><path d="M310.568,157.125c-0.382,0.383 3.324,-2.243 5.588,-3.375c4.598,-2.299 8.858,-2.665 13.926,-2.872c12.642,-0.516 27.093,-5.494 36.736,-13.77c2.03,-1.742 7.197,-4.471 8.264,-6.943" style="fill:none;stroke:#000;stroke-width:1px;"/><path d="M314.835,162.943c10.231,-4.361 31.134,-5.482 42.634,-6.943c5.115,-0.65 10.374,1.015 14.934,-1.98c5.804,-3.811 4.991,-12.337 8.421,-17.96c0.471,-0.772 6.708,-10.395 5.778,-10.395" style="fill:none;stroke:#000;stroke-width:1px;"/><path d="M287.719,175.94c-1.335,-2.719 -0.426,6.606 -0.426,6.75c0,5.442 -0.257,10.983 0.156,16.409c1.19,15.644 -2.634,30.93 -6.247,45.892c-0.566,2.344 -1.119,13.089 -3.375,14.197" style="fill:none;stroke:#000;stroke-width:1px;"/><path d="M260.023,258.878c0,-1.463 -3.175,3.494 -3.492,4.15c-1.403,2.91 -2.738,10.285 -0.932,12.998c2.219,3.332 12.301,6.049 16.14,6.4c2.037,0.187 6.3,-0.858 7.525,0.969" style="fill:none;stroke:#000;stroke-width:1px;"/><path d="M277.44,279.75c-1.137,-2.158 2.5,-1.882 3.645,-1.048c5.885,4.281 11.138,9.471 18.776,10.744c12.536,2.089 21.018,-10.813 28.591,-18.386" style="fill:none;stroke:#000;stroke-width:1px;"/><path d="M203.812,184.591c-2.107,-0.887 -1.451,6.321 4.927,6.321" style="fill:none;stroke:#000;stroke-width:1px;"/><path d="M212.733,186.142c1.259,2.312 3.183,4.423 6.051,4.423" style="fill:none;stroke:#000;stroke-width:1px;"/><path d="M229.764,186.102c0.998,-0.282 3.985,4.657 6.517,4.657" style="fill:none;stroke:#000;stroke-width:1px;"/><path d="M246.29,185.676c1.04,1.579 -0.71,2.993 0.969,4.267" style="fill:none;stroke:#000;stroke-width:1px;"/><path d="M267.159,185.599c-1.813,-0.495 -3.668,3.86 -4.653,5.236" style="fill:none;stroke:#000;stroke-width:1px;"/><path d="M218.435,223.693c-1.537,0 2.878,-0.501 3.258,-0.582c2.289,-0.491 4.551,-1.073 6.867,-1.435c8.545,-1.337 15.78,0.699 23.937,0.699" style="fill:none;stroke:#000;stroke-width:1px;"/><path d="M220.724,198.903c-0.773,-0.667 2.941,-0.269 3.375,-0.269l9.35,0c7.209,0 20.041,-2.788 25.642,3.335" style="fill:none;stroke:#000;stroke-width:1px;"/><path d="M323.991,185.52c-1.074,0 2.851,3.957 4.81,3.957" style="fill:none;stroke:#000;stroke-width:1px;"/><path d="M337.918,184.94c0.475,1.392 -1.784,2.564 -1.784,4.034" style="fill:none;stroke:#000;stroke-width:1px;"/><path d="M351.185,184.668c1.087,1.445 -1.941,2.474 -1.941,4.073" style="fill:none;stroke:#000;stroke-width:1px;"/><path d="M363.52,185.21c1.318,1.752 -2.565,8.343 -2.287,6.168" style="fill:none;stroke:#000;stroke-width:1px;"/><path d="M315.264,197.974c14.347,0 34.583,-4.992 47.909,0.776" style="fill:none;stroke:#000;stroke-width:1px;"/><path d="M317.435,228.037c9.774,2.907 30.446,-8.486 39.414,-4.034" style="fill:none;stroke:#000;stroke-width:1px;"/><path d="M322.594,202.824c-8.722,0 -0.607,13.564 1.165,16.02" style="fill:none;stroke:#000;stroke-width:1px;"/><path d="M350.759,208.216c1.748,4.494 3.824,11.328 1.201,15.943" style="fill:none;stroke:#000;stroke-width:1px;"/><path d="M209.591,206.429c-7.468,4.702 -10.302,14.28 -2.094,19.747" style="fill:none;stroke:#000;stroke-width:1px;"/><path d="M249.122,204.957c2.298,0 2.367,15.427 2.367,17.418" style="fill:none;stroke:#000;stroke-width:1px;"/><path d="M256.881,316.912c0,-0.794 0.664,1.472 1.201,2.057c1.596,1.738 3.554,3.183 5.625,4.307c5.898,3.199 12.514,3.978 19.125,4.071c21.681,0.304 45.187,-6.634 63.813,-17.611c1.942,-1.145 14.548,-7.53 14.548,-10.358" style="fill:none;stroke:#000;stroke-width:1px;"/><path d="M256.452,320.48c1.957,5.251 -0.867,14.104 -1.628,19.358c-1.63,11.255 -2.017,22.473 -2.017,33.827" style="fill:none;stroke:#000;stroke-width:1px;"/><path d="M258.818,379.835c3.974,0 10.795,3.499 15.208,4.188c13.981,2.182 29.795,2.671 43.488,-1.435" style="fill:none;stroke:#000;stroke-width:1px;"/><path d="M339.315,377.429c4.629,-18.516 7.706,-37.843 15.787,-55.278c1.877,-4.05 5.673,-13.461 10.784,-14.858" style="fill:none;stroke:#000;stroke-width:1px;"/><path d="M262.349,353.611c5.256,2.745 16.088,1.179 21.802,0.582c16.051,-1.678 31.689,-3.828 47.869,-3.648" style="fill:none;stroke:#000;stroke-width:1px;"/><path d="M424.27,177.645c0.943,-3.661 6.179,-6.27 9.156,-8.068c10.083,-6.09 37.911,-16.705 32.895,6.207c-1.518,6.932 -8.918,12.911 -11.713,19.511c-4.819,11.381 -6.27,24.453 -7.179,36.66c-0.783,10.511 -1.746,21.445 0.506,31.812c1.323,6.091 6.937,15.459 5.895,21.645c-0.531,3.146 -8.088,3.043 -10.319,3.415c-8.095,1.35 -18.852,9.027 -18.852,-2.949" style="fill:none;stroke:#000;stroke-width:1px;"/><path d="M432.108,197.741c-1.24,-6.064 17.971,-19.865 15.943,-4.463c-0.158,1.199 -0.797,2.8 -1.204,3.921c-0.864,2.379 -1.88,4.538 -3.103,6.75" style="fill:none;stroke:#000;stroke-width:1px;"/><path d="M419.42,268.304c4.312,-11.579 14.161,-9.288 22.191,-3.528" style="fill:none;stroke:#000;stroke-width:1px;"/><path d="M437.616,257.483c-0.284,0.111 -0.118,-11.069 0.117,-12.492c1.81,-10.948 7.805,-19.742 13.187,-29.173" style="fill:none;stroke:#000;stroke-width:1px;"/><path d="M294.352,418.082c-0.22,-1.844 -0.265,7.67 -0.426,8.924c-0.585,4.558 -1.393,19.13 -5.082,21.88" style="fill:none;stroke:#000;stroke-width:1px;"/><path d="M309.327,413.119c-2.474,3.515 -1.563,9.81 -1.591,13.963c-0.075,10.89 -0.859,21.919 0.04,32.782" style="fill:none;stroke:#000;stroke-width:1px;"/></g></svg>